<svg width="175" height="28" viewBox="0 0 175 28" fill="none" xmlns="http://www.w3.org/2000/svg">
<path d="M12.0578 27V1.272H13.9778V27H12.0578ZM7.83375 27V1.272H9.75375V27H7.83375ZM0.79375 3.256V1.336H5.52975V3.256H0.79375ZM0.79375 7.48V5.56H5.52975V7.48H0.79375ZM32.9003 20.216V8.056C32.9003 6.43467 32.3883 5.06933 31.3643 3.96C30.3829 2.808 28.9109 2.232 26.9483 2.232C24.9856 2.232 23.4923 2.808 22.4683 3.96C21.4869 5.06933 20.9963 6.43467 20.9963 8.056V20.216C20.9963 21.7947 21.4869 23.16 22.4683 24.312C23.4923 25.464 24.9856 26.04 26.9483 26.04C28.9109 26.04 30.3829 25.464 31.3643 24.312C32.3883 23.16 32.9003 21.7947 32.9003 20.216ZM28.6763 20.216V8.056C28.6763 7.58667 28.5269 7.20267 28.2283 6.904C27.9723 6.60533 27.5456 6.456 26.9483 6.456C26.3509 6.456 25.9029 6.60533 25.6042 6.904C25.3483 7.20267 25.2203 7.58667 25.2203 8.056V20.216C25.2203 20.6427 25.3483 21.0267 25.6042 21.368C25.9029 21.6667 26.3509 21.816 26.9483 21.816C27.5456 21.816 27.9723 21.6667 28.2283 21.368C28.5269 21.0267 28.6763 20.6427 28.6763 20.216ZM19.0763 20.216V8.056C19.0763 5.92267 19.7589 4.10933 21.1243 2.616C22.5323 1.08 24.4736 0.311998 26.9483 0.311998C29.4229 0.311998 31.3429 1.08 32.7083 2.616C34.1163 4.10933 34.8203 5.92267 34.8203 8.056V20.216C34.8203 22.3493 34.1163 24.184 32.7083 25.72C31.3429 27.2133 29.4229 27.96 26.9483 27.96C24.4736 27.96 22.5323 27.2133 21.1243 25.72C19.7589 24.184 19.0763 22.3493 19.0763 20.216ZM23.3003 20.216V8.056C23.3003 6.98933 23.6416 6.136 24.3243 5.496C25.0069 4.856 25.8816 4.536 26.9483 4.536C28.0576 4.536 28.9323 4.856 29.5723 5.496C30.2549 6.136 30.5963 6.98933 30.5963 8.056V20.216C30.5963 21.2827 30.2549 22.136 29.5723 22.776C28.9323 23.416 28.0576 23.736 26.9483 23.736C25.8816 23.736 25.0069 23.416 24.3243 22.776C23.6416 22.136 23.3003 21.2827 23.3003 20.216ZM52.4628 20.216V8.056C52.4628 6.43467 51.9508 5.06933 50.9268 3.96C49.9454 2.808 48.4734 2.232 46.5108 2.232C44.5481 2.232 43.0548 2.808 42.0308 3.96C41.0494 5.06933 40.5588 6.43467 40.5588 8.056V20.216C40.5588 21.7947 41.0494 23.16 42.0308 24.312C43.0548 25.464 44.5481 26.04 46.5108 26.04C48.4734 26.04 49.9454 25.464 50.9268 24.312C51.9508 23.16 52.4628 21.7947 52.4628 20.216ZM48.2388 20.216V8.056C48.2388 7.58667 48.0894 7.20267 47.7908 6.904C47.5348 6.60533 47.1081 6.456 46.5108 6.456C45.9134 6.456 45.4654 6.60533 45.1667 6.904C44.9108 7.20267 44.7828 7.58667 44.7828 8.056V20.216C44.7828 20.6427 44.9108 21.0267 45.1667 21.368C45.4654 21.6667 45.9134 21.816 46.5108 21.816C47.1081 21.816 47.5348 21.6667 47.7908 21.368C48.0894 21.0267 48.2388 20.6427 48.2388 20.216ZM38.6388 20.216V8.056C38.6388 5.92267 39.3214 4.10933 40.6868 2.616C42.0948 1.08 44.0361 0.311998 46.5108 0.311998C48.9854 0.311998 50.9054 1.08 52.2708 2.616C53.6788 4.10933 54.3828 5.92267 54.3828 8.056V20.216C54.3828 22.3493 53.6788 24.184 52.2708 25.72C50.9054 27.2133 48.9854 27.96 46.5108 27.96C44.0361 27.96 42.0948 27.2133 40.6868 25.72C39.3214 24.184 38.6388 22.3493 38.6388 20.216ZM42.8628 20.216V8.056C42.8628 6.98933 43.2041 6.136 43.8868 5.496C44.5694 4.856 45.4441 4.536 46.5108 4.536C47.6201 4.536 48.4948 4.856 49.1348 5.496C49.8174 6.136 50.1588 6.98933 50.1588 8.056V20.216C50.1588 21.2827 49.8174 22.136 49.1348 22.776C48.4948 23.416 47.6201 23.736 46.5108 23.736C45.4441 23.736 44.5694 23.416 43.8868 22.776C43.2041 22.136 42.8628 21.2827 42.8628 20.216ZM74.8588 3.192V1.272H95.9148V3.192H74.8588ZM82.2828 27V7.416H74.8588V5.496H95.9148V7.416H88.4268V27H86.5068V7.416H84.2028V27H82.2828ZM103.315 27V1.272H105.235V27H103.315ZM99.0913 27V1.272H101.011V27H99.0913ZM114.565 27V1.272H116.485V20.856H127.941V22.776H116.485V25.08H127.941V27H114.565ZM110.341 27V1.272H112.261V27H110.341ZM135.69 27V1.272H150.986V3.192H137.61V5.496H150.986V7.416H137.61V11.064H148.938V12.984H137.61V15.288H148.938V17.208H137.61V20.856H150.986V22.776H137.61V25.08H150.986V27H135.69ZM131.466 27V1.272H133.386V27H131.466ZM164.252 23.416C162.546 23.416 161.138 23.096 160.028 22.456C158.962 21.816 158.364 20.984 158.236 19.96L160.156 19.704C160.199 20.2587 160.583 20.7067 161.308 21.048C162.034 21.3467 163.015 21.496 164.252 21.496C166.983 21.496 168.348 20.8987 168.348 19.704C168.348 19.192 168.071 18.744 167.516 18.36C166.962 17.9333 165.959 17.5067 164.508 17.08L161.244 16.12C159.239 15.5227 157.554 14.6267 156.188 13.432C154.866 12.2373 154.204 10.6373 154.204 8.632C154.204 7.096 154.631 5.73067 155.484 4.536C156.38 3.34133 157.596 2.40267 159.132 1.72C160.668 0.994665 162.375 0.631998 164.252 0.631998C166.983 0.631998 169.266 1.29333 171.1 2.616C172.935 3.93867 173.98 5.64533 174.236 7.736L172.316 7.928C172.146 6.30667 171.314 5.00533 169.82 4.024C168.37 3.04266 166.514 2.552 164.252 2.552C161.906 2.552 159.964 3.128 158.428 4.28C156.892 5.432 156.124 6.88267 156.124 8.632C156.124 10.2107 156.636 11.4267 157.66 12.28C158.684 13.1333 160.135 13.8373 162.012 14.392L165.532 15.416C168.69 16.3547 170.268 17.7627 170.268 19.64C170.268 20.8347 169.714 21.7733 168.604 22.456C167.538 23.096 166.087 23.416 164.252 23.416ZM164.252 27.64C161.436 27.64 159.09 26.9787 157.212 25.656C155.378 24.3333 154.332 22.6267 154.076 20.536L155.996 20.28C156.21 21.9013 157.063 23.224 158.556 24.248C160.05 25.2293 161.948 25.72 164.252 25.72C166.727 25.72 168.732 25.1653 170.268 24.056C171.804 22.904 172.572 21.3467 172.572 19.384C172.572 17.8053 172.082 16.5253 171.1 15.544C170.119 14.5627 168.69 13.8373 166.812 13.368L162.908 12.344C161.458 11.96 160.348 11.4907 159.58 10.936C158.812 10.3387 158.428 9.57067 158.428 8.632C158.428 7.48 158.962 6.56267 160.028 5.88C161.138 5.19733 162.546 4.856 164.252 4.856C165.831 4.856 167.154 5.176 168.22 5.816C169.287 6.41333 169.884 7.20267 170.012 8.184L168.156 8.44C167.943 7.33067 166.642 6.776 164.252 6.776C163.058 6.776 162.098 6.94667 161.372 7.288C160.69 7.58666 160.348 8.03467 160.348 8.632C160.348 9.016 160.583 9.35733 161.052 9.656C161.522 9.912 162.546 10.2747 164.124 10.744L167.516 11.704C169.735 12.344 171.442 13.2827 172.636 14.52C173.874 15.7573 174.492 17.3787 174.492 19.384C174.492 21.944 173.532 23.9707 171.612 25.464C169.735 26.9147 167.282 27.64 164.252 27.64Z" fill="white"/>
</svg>
