<svg width="88" height="45" viewBox="0 0 88 45" fill="none" xmlns="http://www.w3.org/2000/svg">
<circle cx="44" cy="20" r="20" fill="black"/>
<path d="M35.309 17.24C35.2957 17.1867 35.249 17.0933 35.169 16.96C35.1023 16.8133 35.049 16.72 35.009 16.68C34.889 16.6267 34.669 16.5533 34.349 16.46C34.0423 16.3533 33.709 16.24 33.349 16.12C32.989 15.9867 32.649 15.8667 32.329 15.76C32.009 15.6533 31.7823 15.58 31.649 15.54C31.6223 15.5267 31.5557 15.4933 31.449 15.44C31.3423 15.3733 31.2223 15.3067 31.089 15.24C30.9557 15.16 30.8357 15.0933 30.729 15.04C30.6223 14.9867 30.549 14.96 30.509 14.96C30.309 14.96 30.1157 15.0867 29.929 15.34C29.7557 15.5933 29.5757 15.9067 29.389 16.28C29.2023 16.64 29.009 17.0267 28.809 17.44C28.609 17.8533 28.3823 18.2333 28.129 18.58C27.8757 18.9133 27.6023 19.1733 27.309 19.36C27.0157 19.5467 26.6823 19.5867 26.309 19.48V18.92C26.389 18.8267 26.509 18.68 26.669 18.48C26.829 18.2667 27.009 18.0333 27.209 17.78C27.4223 17.5133 27.6423 17.24 27.869 16.96C28.0957 16.68 28.309 16.4067 28.509 16.14C28.709 15.8733 28.8823 15.64 29.029 15.44C29.189 15.2267 29.309 15.0667 29.389 14.96C29.5223 14.7867 29.5423 14.5333 29.449 14.2C29.369 13.8667 29.2357 13.5133 29.049 13.14C28.8757 12.7667 28.6823 12.3933 28.469 12.02C28.269 11.6333 28.1223 11.3067 28.029 11.04C27.949 10.76 27.9557 10.56 28.049 10.44C28.1557 10.32 28.429 10.3333 28.869 10.48C29.0023 10.9333 29.2023 11.4 29.469 11.88C29.749 12.36 30.0957 12.7333 30.509 13C30.8557 12.7733 31.1823 12.4733 31.489 12.1C31.7957 11.7133 32.0823 11.28 32.349 10.8C32.6157 10.3067 32.8557 9.78667 33.069 9.24C33.2957 8.69333 33.4957 8.15333 33.669 7.62C33.8557 7.08667 34.0157 6.58 34.149 6.1C34.2823 5.62 34.389 5.20667 34.469 4.86C34.5623 4.71333 34.6823 4.6 34.829 4.52C34.989 4.42667 35.149 4.35333 35.309 4.3C35.3757 4.39333 35.4223 4.63333 35.449 5.02C35.4757 5.39333 35.489 5.85333 35.489 6.4C35.489 6.93333 35.4757 7.53333 35.449 8.2C35.4357 8.86667 35.4223 9.54 35.409 10.22C35.409 10.8867 35.4157 11.54 35.429 12.18C35.4423 12.82 35.469 13.3867 35.509 13.88C35.5623 14.3733 35.6357 14.7733 35.729 15.08C35.8357 15.3867 35.9757 15.54 36.149 15.54H37.849V16.54H36.429C36.2423 16.54 36.169 16.6667 36.209 16.92C36.249 17.16 36.349 17.4667 36.509 17.84C36.669 18.2133 36.849 18.6267 37.049 19.08C37.2623 19.5467 37.4423 19.9933 37.589 20.42C37.7357 20.8467 37.8157 21.2267 37.829 21.56C37.8557 21.9067 37.7623 22.1533 37.549 22.3C37.509 22.3267 37.4157 22.34 37.269 22.34C37.1223 22.34 37.0223 22.3267 36.969 22.3C36.929 22.1 36.829 21.76 36.669 21.28C36.509 20.8 36.3357 20.2867 36.149 19.74C35.9757 19.2067 35.8023 18.7067 35.629 18.24C35.469 17.76 35.3623 17.4267 35.309 17.24ZM32.489 14.7C32.5557 14.74 32.6757 14.8 32.849 14.88C33.0357 14.9467 33.229 15.0267 33.429 15.12C33.6423 15.2133 33.849 15.3 34.049 15.38C34.249 15.4467 34.389 15.5 34.469 15.54C34.4957 15.5533 34.5357 15.56 34.589 15.56C34.6557 15.56 34.7023 15.5533 34.729 15.54C34.7823 15.1 34.7823 14.5467 34.729 13.88C34.689 13.2 34.629 12.5133 34.549 11.82C34.4823 11.1133 34.409 10.44 34.329 9.8C34.2623 9.14667 34.2157 8.63333 34.189 8.26L31.089 13.86C31.129 13.9 31.2157 13.96 31.349 14.04C31.4957 14.12 31.6357 14.2067 31.769 14.3C31.9157 14.38 32.0557 14.46 32.189 14.54C32.3357 14.62 32.4357 14.6733 32.489 14.7ZM42.1518 20.06C42.1385 19.9933 42.1318 19.8867 42.1318 19.74C42.1318 19.6067 42.1385 19.52 42.1518 19.48C42.1651 19.4667 42.1985 19.4467 42.2518 19.42C42.3051 19.4067 42.3585 19.38 42.4118 19.34C42.4785 19.3 42.5385 19.2667 42.5918 19.24C42.6585 19.2267 42.6985 19.2133 42.7118 19.2C43.1918 19.0667 43.6651 18.9267 44.1318 18.78C44.6118 18.62 45.0785 18.4467 45.5318 18.26C45.9851 18.0733 46.4185 17.8533 46.8318 17.6C47.2585 17.3333 47.6651 17.0333 48.0518 16.7C48.9851 15.8467 49.6518 15.12 50.0518 14.52C50.4518 13.9067 50.6651 13.3867 50.6918 12.96C50.7185 12.5333 50.5851 12.1933 50.2918 11.94C50.0118 11.6867 49.6518 11.5 49.2118 11.38C48.7718 11.2467 48.2918 11.18 47.7718 11.18C47.2518 11.1667 46.7651 11.1933 46.3118 11.26C45.8585 11.3133 45.4785 11.4 45.1718 11.52C44.8651 11.64 44.7051 11.7667 44.6918 11.9L44.1318 17.52C44.1318 17.6133 44.0785 17.6867 43.9718 17.74C43.8785 17.7933 43.7785 17.82 43.6718 17.82C43.5785 17.82 43.4918 17.7933 43.4118 17.74C43.3318 17.6867 43.2918 17.6133 43.2918 17.52V13H42.1518C42.1518 12.9733 42.1518 12.9333 42.1518 12.88C42.1518 12.8133 42.1518 12.7667 42.1518 12.74C42.1918 12.6733 42.2651 12.5733 42.3718 12.44C42.4785 12.3067 42.5851 12.1667 42.6918 12.02C42.8118 11.8733 42.9251 11.7333 43.0318 11.6C43.1518 11.4667 43.2385 11.38 43.2918 11.34C43.3051 11.2067 43.3251 10.9667 43.3518 10.62C43.3785 10.26 43.4051 9.88667 43.4318 9.5C43.4585 9.11333 43.4851 8.74667 43.5118 8.4C43.5385 8.05333 43.5585 7.81333 43.5718 7.68C43.5851 7.38667 43.5518 7.18 43.4718 7.06C43.3918 6.92667 43.2785 6.86 43.1318 6.86C42.9985 6.84667 42.8451 6.88667 42.6718 6.98C42.4985 7.06 42.3251 7.16 42.1518 7.28C41.9785 7.4 41.8118 7.52667 41.6518 7.66C41.5051 7.78 41.3918 7.87333 41.3118 7.94C41.2318 8.04667 41.0785 8.20667 40.8518 8.42C40.6385 8.62 40.4118 8.84 40.1718 9.08C39.9318 9.32 39.7051 9.54667 39.4918 9.76C39.2785 9.97333 39.1385 10.1267 39.0718 10.22H38.2118C38.1185 9.9 38.1785 9.57333 38.3918 9.24C38.6185 8.90667 38.9518 8.56 39.3918 8.2C39.8451 7.84 40.3718 7.48667 40.9718 7.14C41.5851 6.78 42.2318 6.44 42.9118 6.12C43.6051 5.8 44.2918 5.50667 44.9718 5.24C45.6518 4.97333 46.2918 4.74667 46.8918 4.56C47.4918 4.36 48.0185 4.21333 48.4718 4.12C48.9385 4.01333 49.2718 3.98 49.4718 4.02C49.6585 4.06 49.7785 4.16667 49.8318 4.34C49.8851 4.51333 49.8985 4.70667 49.8718 4.92C49.8451 5.12 49.7851 5.32667 49.6918 5.54C49.6118 5.74 49.5385 5.89333 49.4718 6C49.1385 6.46667 48.8251 6.89333 48.5318 7.28C48.2518 7.66667 47.9651 8.03333 47.6718 8.38C47.3785 8.71333 47.0585 9.05333 46.7118 9.4C46.3785 9.73333 45.9918 10.1 45.5518 10.5C45.9251 10.5667 46.2785 10.58 46.6118 10.54C46.9451 10.4867 47.2718 10.44 47.5918 10.4C47.9251 10.3467 48.2718 10.32 48.6318 10.32C48.9918 10.3067 49.3651 10.3667 49.7518 10.5C49.9918 10.58 50.1985 10.66 50.3718 10.74C50.5585 10.82 50.7185 10.92 50.8518 11.04C50.9985 11.16 51.1118 11.3133 51.1918 11.5C51.2851 11.6733 51.3718 11.8933 51.4518 12.16C51.5851 12.8133 51.5251 13.4467 51.2718 14.06C51.0318 14.6733 50.6585 15.26 50.1518 15.82C49.6451 16.3667 49.0585 16.88 48.3918 17.36C47.7251 17.84 47.0451 18.28 46.3518 18.68C45.6585 19.0667 44.9918 19.3933 44.3518 19.66C43.7118 19.94 43.1651 20.1667 42.7118 20.34C42.5918 20.38 42.4785 20.3667 42.3718 20.3C42.2651 20.2333 42.1918 20.1533 42.1518 20.06ZM44.6918 6.54V10.22C44.7718 10.14 44.8851 10.0333 45.0318 9.9C45.1785 9.75333 45.3451 9.58667 45.5318 9.4C45.7185 9.21333 45.9118 9.02 46.1118 8.82C46.3251 8.62 46.5185 8.42667 46.6918 8.24C46.8785 8.04 47.0385 7.86667 47.1718 7.72C47.3185 7.57333 47.4318 7.46 47.5118 7.38C47.6185 7.27333 47.7451 7.12 47.8918 6.92C48.0518 6.70667 48.2051 6.49333 48.3518 6.28C48.5118 6.06667 48.6451 5.88 48.7518 5.72C48.8585 5.56 48.9118 5.46 48.9118 5.42V4.58C48.5918 4.52667 48.2118 4.56 47.7718 4.68C47.3318 4.78667 46.8918 4.92667 46.4518 5.1C46.0251 5.26 45.6251 5.42667 45.2518 5.6C44.8785 5.77333 44.5985 5.90667 44.4118 6L44.6918 6.54ZM54.2776 20.06C53.8242 19.8867 53.4576 19.5733 53.1776 19.12C52.9109 18.68 52.7176 18.16 52.5976 17.56C52.4776 16.96 52.4309 16.3133 52.4576 15.62C52.4976 14.9133 52.5976 14.2067 52.7576 13.5C52.9176 12.7933 53.1309 12.1267 53.3976 11.5C53.6642 10.86 53.9776 10.3067 54.3376 9.84C54.7109 9.36 55.1242 9 55.5776 8.76C56.0442 8.52 56.5442 8.44 57.0776 8.52C57.1042 8.62667 57.1442 8.81333 57.1976 9.08C57.2509 9.34667 57.3042 9.63333 57.3576 9.94C57.4242 10.2333 57.4776 10.5133 57.5176 10.78C57.5709 11.0467 57.6109 11.2333 57.6376 11.34C57.6642 11.46 57.6242 11.5933 57.5176 11.74C57.4242 11.8733 57.3109 11.9867 57.1776 12.08C57.0442 12.16 56.9109 12.2 56.7776 12.2C56.6576 12.1867 56.5709 12.0867 56.5176 11.9C56.4776 11.7933 56.4509 11.64 56.4376 11.44C56.4242 11.24 56.3976 11.0267 56.3576 10.8C56.3176 10.56 56.2709 10.3467 56.2176 10.16C56.1642 9.96 56.0909 9.81333 55.9976 9.72C55.9042 9.62667 55.7842 9.61333 55.6376 9.68C55.4909 9.73333 55.3176 9.91333 55.1176 10.22C55.0376 10.3 54.9509 10.4133 54.8576 10.56C54.7776 10.7067 54.6909 10.8533 54.5976 11C54.5042 11.1467 54.4242 11.28 54.3576 11.4C54.3042 11.52 54.2776 11.5933 54.2776 11.62L53.4176 16.12C53.3242 16.6133 53.3309 17.06 53.4376 17.46C53.5442 17.8467 53.7176 18.18 53.9576 18.46C54.1976 18.74 54.4909 18.9533 54.8376 19.1C55.1842 19.26 55.5442 19.3467 55.9176 19.36C56.3042 19.3867 56.6976 19.34 57.0976 19.22C57.4976 19.1133 57.8709 18.92 58.2176 18.64C58.3509 18.5467 58.5176 18.3667 58.7176 18.1C58.9309 17.82 59.1509 17.5133 59.3776 17.18C59.6176 16.8467 59.8642 16.4933 60.1176 16.12C60.3842 15.7467 60.6309 15.4133 60.8576 15.12C61.0842 14.8133 61.2842 14.5667 61.4576 14.38C61.6309 14.1933 61.7576 14.1133 61.8376 14.14C62.0109 14.62 62.0042 15.1267 61.8176 15.66C61.6442 16.18 61.3576 16.6933 60.9576 17.2C60.5576 17.7067 60.0709 18.18 59.4976 18.62C58.9242 19.0467 58.3309 19.3933 57.7176 19.66C57.1042 19.94 56.4976 20.1267 55.8976 20.22C55.2976 20.3133 54.7576 20.26 54.2776 20.06Z" fill="#42B6AF"/>
<path d="M5.14547 44.24C4.7588 44.1733 4.3988 44.08 4.06547 43.96C3.73214 43.8267 3.44547 43.66 3.20547 43.46C3.03214 43.3 2.90547 43.1133 2.82547 42.9C2.74547 42.6733 2.70547 42.4333 2.70547 42.18C2.70547 41.7533 2.7788 41.3133 2.92547 40.86C3.07214 40.3933 3.1988 39.9933 3.30547 39.66C3.5588 38.9133 3.8588 38.12 4.20547 37.28C4.56547 36.44 4.92547 35.6267 5.28547 34.84C5.6588 34.0533 5.99214 33.3533 6.28547 32.74C6.5788 32.1267 6.7988 31.68 6.94547 31.4C6.9988 31.2933 7.04547 31.1933 7.08547 31.1C7.1388 31.0067 7.19214 30.92 7.24547 30.84C7.11214 30.8533 6.98547 30.8733 6.86547 30.9C6.74547 30.9133 6.63214 30.9267 6.52547 30.94C5.9388 31.02 5.32547 31.1533 4.68547 31.34C4.0588 31.5133 3.49214 31.7333 2.98547 32C2.4788 32.2667 2.11214 32.5933 1.88547 32.98C1.87214 33.02 1.84547 33.04 1.80547 33.04C1.7788 33.04 1.7588 33.0133 1.74547 32.96C1.7188 32.9067 1.71214 32.8467 1.72547 32.78C1.8588 32.4333 2.02547 32.1 2.22547 31.78C2.42547 31.46 2.6188 31.2067 2.80547 31.02C3.0988 30.7133 3.4988 30.4933 4.00547 30.36C4.51214 30.2267 5.03214 30.14 5.56547 30.1C6.11214 30.06 6.5788 30.04 6.96547 30.04H11.0655C12.4121 30.04 13.4921 30.2933 14.3055 30.8C15.1321 31.3067 15.7321 31.9733 16.1055 32.8C16.4788 33.6267 16.6655 34.52 16.6655 35.48C16.6655 35.7067 16.6588 35.9333 16.6455 36.16C16.6321 36.3867 16.6055 36.6133 16.5655 36.84C16.3655 38.0533 15.9721 39.1333 15.3855 40.08C14.8121 41.0133 14.0988 41.8 13.2455 42.44C12.3921 43.08 11.4321 43.5667 10.3655 43.9C9.31214 44.22 8.20547 44.38 7.04547 44.38C6.7388 44.38 6.42547 44.3667 6.10547 44.34C5.78547 44.3267 5.46547 44.2933 5.14547 44.24ZM5.64547 43.46C5.8188 43.4733 5.99214 43.4933 6.16547 43.52C6.3388 43.5333 6.51214 43.54 6.68547 43.54C7.63214 43.54 8.52547 43.3733 9.36547 43.04C10.2188 42.7067 10.9855 42.24 11.6655 41.64C12.3588 41.04 12.9455 40.3467 13.4255 39.56C13.9055 38.7733 14.2521 37.92 14.4655 37C14.6121 36.3867 14.6855 35.8 14.6855 35.24C14.6855 34.64 14.5921 34.0667 14.4055 33.52C14.2321 32.96 13.9455 32.46 13.5455 32.02C13.1855 31.62 12.7055 31.3133 12.1055 31.1C11.5055 30.8733 10.9521 30.74 10.4455 30.7C10.3255 30.6867 10.2055 30.68 10.0855 30.68C9.96547 30.6667 9.84547 30.66 9.72547 30.66C9.48547 30.98 9.2388 31.36 8.98547 31.8C8.73214 32.2267 8.48547 32.6667 8.24547 33.12C8.0188 33.5733 7.8188 33.9867 7.64547 34.36C7.19214 35.3333 6.76547 36.3067 6.36547 37.28C5.96547 38.2533 5.60547 39.2467 5.28547 40.26C5.19214 40.5533 5.0988 40.8867 5.00547 41.26C4.91214 41.6333 4.86547 41.98 4.86547 42.3C4.86547 42.5933 4.9188 42.8533 5.02547 43.08C5.14547 43.2933 5.35214 43.42 5.64547 43.46ZM17.8655 44C18.0255 43.3333 18.2388 42.5933 18.5055 41.78C18.7855 40.9533 19.0988 40.0933 19.4455 39.2C19.8055 38.3067 20.1721 37.42 20.5455 36.54C20.9188 35.66 21.2788 34.82 21.6255 34.02C21.9721 33.2067 22.3721 32.3867 22.8255 31.56C22.9188 31.4 22.9988 31.2533 23.0655 31.12C23.1455 30.9867 23.2321 30.8733 23.3255 30.78C22.8055 30.7933 22.2455 30.86 21.6455 30.98C21.0588 31.0867 20.4921 31.24 19.9455 31.44C19.4121 31.64 18.9521 31.8733 18.5655 32.14C18.1921 32.4067 17.9521 32.7 17.8455 33.02C17.8321 33.06 17.8055 33.08 17.7655 33.08C17.6455 33.08 17.5855 32.9867 17.5855 32.8C17.5855 32.76 17.5988 32.7 17.6255 32.62C17.7455 32.2733 17.8921 31.9667 18.0655 31.7C18.2521 31.4333 18.4388 31.2067 18.6255 31.02C19.0655 30.5667 19.5588 30.2933 20.1055 30.2C20.6521 30.0933 21.2321 30.04 21.8455 30.04H26.3655C26.0455 30.28 25.7055 30.6733 25.3455 31.22C24.9855 31.7533 24.6321 32.3533 24.2855 33.02C23.9388 33.6867 23.6121 34.34 23.3055 34.98C23.0121 35.62 22.7655 36.16 22.5655 36.6C22.4721 36.8133 22.3388 37.14 22.1655 37.58C21.9921 38.0067 21.7988 38.4933 21.5855 39.04C21.3855 39.5867 21.1921 40.1533 21.0055 40.74C20.8188 41.3133 20.6655 41.8467 20.5455 42.34C20.4255 42.8333 20.3655 43.24 20.3655 43.56C20.3655 43.6533 20.3721 43.74 20.3855 43.82C20.4121 43.8867 20.4321 43.9467 20.4455 44H17.8655ZM30.167 44.76C29.5537 44.76 28.907 44.6867 28.227 44.54C27.5604 44.4067 27.0004 44.1933 26.547 43.9C25.9204 43.4733 25.4604 42.9267 25.167 42.26C24.8737 41.5933 24.727 40.8667 24.727 40.08C24.727 39.2933 24.8537 38.4733 25.107 37.62C25.3737 36.7667 25.7537 35.9333 26.247 35.12C26.7404 34.2933 27.3204 33.5333 27.987 32.84C28.667 32.1333 29.427 31.5333 30.267 31.04C31.107 30.5467 32.0004 30.2067 32.947 30.02C33.547 29.9 34.1204 29.84 34.667 29.84C35.7337 29.84 36.587 30.0533 37.227 30.48C37.867 30.8933 38.187 31.4267 38.187 32.08C38.187 32.2133 38.1737 32.3467 38.147 32.48C38.1337 32.6 38.0937 32.7333 38.027 32.88C37.8804 33.2667 37.6337 33.6133 37.287 33.92C36.9537 34.2133 36.567 34.44 36.127 34.6C35.7004 34.76 35.2604 34.8267 34.807 34.8C34.5937 34.7733 34.407 34.7 34.247 34.58C34.1004 34.4467 34.027 34.2867 34.027 34.1C34.027 33.9133 34.107 33.7133 34.267 33.5C34.4137 33.5533 34.5804 33.58 34.767 33.58C35.1004 33.58 35.427 33.5 35.747 33.34C36.067 33.18 36.3337 32.96 36.547 32.68C36.7604 32.4 36.867 32.0867 36.867 31.74C36.867 31.2733 36.707 30.9667 36.387 30.82C36.067 30.66 35.707 30.58 35.307 30.58C35.0404 30.58 34.7737 30.6067 34.507 30.66C34.2537 30.7 34.047 30.74 33.887 30.78C33.127 30.98 32.387 31.3667 31.667 31.94C30.947 32.5 30.287 33.1667 29.687 33.94C29.1004 34.7133 28.607 35.5133 28.207 36.34C27.9537 36.8733 27.7204 37.52 27.507 38.28C27.2937 39.04 27.187 39.7867 27.187 40.52C27.187 40.9067 27.2204 41.28 27.287 41.64C27.367 41.9867 27.4937 42.3067 27.667 42.6C27.947 43.08 28.3337 43.4133 28.827 43.6C29.3337 43.7867 29.8604 43.88 30.407 43.88C30.8204 43.88 31.227 43.8467 31.627 43.78C32.0404 43.7 32.4137 43.6 32.747 43.48C33.1737 43.3333 33.587 43.1333 33.987 42.88C34.387 42.6133 34.7537 42.3133 35.087 41.98C35.4604 41.5933 35.7737 41.1733 36.027 40.72C36.2937 40.2667 36.467 39.7933 36.547 39.3H35.487C34.9004 39.3 34.2937 39.3067 33.667 39.32C33.0404 39.32 32.567 39.3467 32.247 39.4C32.247 39.4 32.2937 39.32 32.387 39.16C32.4804 38.9867 32.6004 38.7933 32.747 38.58C32.8937 38.3533 33.047 38.16 33.207 38C33.3804 37.8267 33.5404 37.74 33.687 37.74H39.547C39.4537 38.2467 39.287 38.6067 39.047 38.82C38.807 39.0333 38.507 39.1733 38.147 39.24C38.0804 39.4267 38.0137 39.6133 37.947 39.8C37.8804 39.9733 37.8137 40.1133 37.747 40.22C37.0004 41.7533 35.9804 42.8933 34.687 43.64C33.3937 44.3867 31.887 44.76 30.167 44.76ZM39.6623 44C39.8223 43.3333 40.0357 42.5933 40.3023 41.78C40.5823 40.9533 40.8957 40.0933 41.2423 39.2C41.6023 38.3067 41.969 37.42 42.3423 36.54C42.7157 35.66 43.0757 34.82 43.4223 34.02C43.769 33.2067 44.169 32.3867 44.6223 31.56C44.7157 31.4 44.7957 31.2533 44.8623 31.12C44.9423 30.9867 45.029 30.8733 45.1223 30.78C44.6023 30.7933 44.0423 30.86 43.4423 30.98C42.8557 31.0867 42.289 31.24 41.7423 31.44C41.209 31.64 40.749 31.8733 40.3623 32.14C39.989 32.4067 39.749 32.7 39.6423 33.02C39.629 33.06 39.6023 33.08 39.5623 33.08C39.4423 33.08 39.3823 32.9867 39.3823 32.8C39.3823 32.76 39.3957 32.7 39.4223 32.62C39.5423 32.2733 39.689 31.9667 39.8623 31.7C40.049 31.4333 40.2357 31.2067 40.4223 31.02C40.8623 30.5667 41.3557 30.2933 41.9023 30.2C42.449 30.0933 43.029 30.04 43.6423 30.04H48.1623C47.8423 30.28 47.5023 30.6733 47.1423 31.22C46.7823 31.7533 46.429 32.3533 46.0823 33.02C45.7357 33.6867 45.409 34.34 45.1023 34.98C44.809 35.62 44.5623 36.16 44.3623 36.6C44.269 36.8133 44.1357 37.14 43.9623 37.58C43.789 38.0067 43.5957 38.4933 43.3823 39.04C43.1823 39.5867 42.989 40.1533 42.8023 40.74C42.6157 41.3133 42.4623 41.8467 42.3423 42.34C42.2223 42.8333 42.1623 43.24 42.1623 43.56C42.1623 43.6533 42.169 43.74 42.1823 43.82C42.209 43.8867 42.229 43.9467 42.2423 44H39.6623ZM52.0463 44.44C51.6063 44.44 51.3129 44.2867 51.1663 43.98C51.0196 43.66 50.9463 43.3067 50.9463 42.92C50.9463 42.6533 50.9663 42.3933 51.0063 42.14C51.0463 41.8733 51.0863 41.6533 51.1263 41.48C51.2329 40.9733 51.4063 40.3733 51.6463 39.68C51.8863 38.9733 52.1596 38.2333 52.4663 37.46C52.7863 36.6733 53.1196 35.9 53.4663 35.14C53.8129 34.3667 54.1463 33.6467 54.4663 32.98C54.7996 32.3 55.0929 31.72 55.3463 31.24C55.0396 31.2533 54.6863 31.2533 54.2863 31.24C53.8863 31.2133 53.4729 31.2 53.0462 31.2C52.3129 31.2 51.5863 31.26 50.8663 31.38C50.1596 31.4867 49.5796 31.7467 49.1263 32.16C48.9129 32.36 48.7596 32.5733 48.6663 32.8C48.5729 33.0267 48.5263 33.2533 48.5263 33.48C48.5263 33.7333 48.5663 33.98 48.6463 34.22C48.6596 34.2467 48.6663 34.28 48.6663 34.32C48.6663 34.4533 48.5996 34.52 48.4663 34.52C48.3863 34.52 48.3263 34.4867 48.2863 34.42C48.1529 34.2067 48.0529 33.9933 47.9863 33.78C47.9329 33.5533 47.9062 33.3333 47.9062 33.12C47.9062 32.7467 47.9729 32.3933 48.1063 32.06C48.2396 31.7267 48.3996 31.4533 48.5863 31.24C49.0529 30.6933 49.6863 30.3333 50.4863 30.16C51.2863 29.9733 52.1196 29.88 52.9863 29.88C53.6529 29.88 54.2996 29.9067 54.9263 29.96C55.5663 30.0133 56.1329 30.0533 56.6263 30.08C57.0929 30.1067 57.6729 30.1533 58.3663 30.22C59.0596 30.2733 59.7329 30.3 60.3863 30.3C60.9729 30.3 61.4996 30.26 61.9663 30.18C62.4329 30.1 62.7729 29.9533 62.9863 29.74C63.0263 29.82 63.0463 29.9133 63.0463 30.02C63.0463 30.3 62.8863 30.5733 62.5663 30.84C62.2463 31.1067 61.8129 31.2867 61.2663 31.38C61.0929 31.4067 60.8929 31.4267 60.6663 31.44C60.4529 31.4533 60.2263 31.46 59.9863 31.46C59.5863 31.46 59.1863 31.4533 58.7863 31.44C58.3863 31.4133 58.0329 31.3867 57.7263 31.36C57.4196 31.3333 57.2129 31.3267 57.1063 31.34C57.0263 31.46 56.8996 31.68 56.7263 32C56.5663 32.32 56.3929 32.6667 56.2063 33.04C56.0196 33.4133 55.8529 33.7533 55.7063 34.06C55.4529 34.5933 55.1863 35.1933 54.9063 35.86C54.6263 36.5267 54.3596 37.2 54.1063 37.88C53.8529 38.56 53.6329 39.2067 53.4463 39.82C53.2729 40.4333 53.1596 40.96 53.1063 41.4C53.0929 41.44 53.0863 41.4867 53.0863 41.54C53.0863 41.58 53.0863 41.62 53.0863 41.66C53.0863 41.9133 53.1329 42.1333 53.2263 42.32C53.3329 42.4933 53.4929 42.58 53.7063 42.58C53.8929 42.58 54.1196 42.48 54.3863 42.28C54.6529 42.08 54.9596 41.7467 55.3063 41.28C55.3729 41.2 55.4329 41.16 55.4863 41.16C55.5663 41.16 55.6063 41.2267 55.6063 41.36C55.6063 41.4533 55.5729 41.58 55.5063 41.74C55.4529 41.9 55.3529 42.0867 55.2063 42.3C55.0863 42.4733 54.8929 42.7067 54.6263 43C54.3596 43.28 54.0996 43.52 53.8463 43.72C53.6196 43.9067 53.3396 44.0733 53.0063 44.22C52.6729 44.3667 52.3529 44.44 52.0463 44.44ZM71.0067 44.16C70.5001 44.16 70.1134 44.0267 69.8467 43.76C69.5801 43.4933 69.4001 43.1533 69.3067 42.74C69.2134 42.3267 69.1534 41.9 69.1267 41.46C69.1267 41.2067 69.1401 40.9067 69.1667 40.56C69.1934 40.2133 69.2267 39.88 69.2667 39.56C69.3201 39.2267 69.3601 38.98 69.3867 38.82H64.8067C63.9534 39.7133 63.1401 40.5867 62.3667 41.44C61.6067 42.28 60.8601 43.1333 60.1267 44H58.1267C58.4734 43.68 58.9267 43.2533 59.4867 42.72C60.0601 42.1733 60.7067 41.5533 61.4267 40.86C62.1467 40.1667 62.8934 39.4333 63.6667 38.66C64.4534 37.8733 65.2401 37.0867 66.0267 36.3C66.8134 35.5 67.5534 34.7333 68.2467 34C68.9534 33.2533 69.5801 32.58 70.1267 31.98C70.3934 31.6867 70.6401 31.3933 70.8667 31.1C71.1067 30.7933 71.3734 30.54 71.6667 30.34C71.9601 30.14 72.3201 30.04 72.7467 30.04H74.1867C73.9601 30.2533 73.7334 30.6133 73.5067 31.12C73.2801 31.6267 73.0734 32.1733 72.8867 32.76C72.7134 33.3467 72.5667 33.88 72.4467 34.36C72.2734 35.08 72.0934 35.86 71.9067 36.7C71.7334 37.54 71.5934 38.3733 71.4867 39.2C71.3801 40.0267 71.3467 40.7933 71.3867 41.5C71.4001 41.7533 71.4467 42.02 71.5267 42.3C71.6201 42.5667 71.7467 42.8 71.9067 43C72.0801 43.1867 72.2934 43.28 72.5467 43.28C72.7734 43.28 73.0201 43.1933 73.2867 43.02L73.4067 43.2C73.2334 43.4667 72.9001 43.6933 72.4067 43.88C71.9267 44.0667 71.4601 44.16 71.0067 44.16ZM63.0067 34.02C62.7934 33.7933 62.6334 33.56 62.5267 33.32C62.4334 33.08 62.3867 32.8533 62.3867 32.64C62.3867 32.3733 62.4401 32.12 62.5467 31.88C62.6667 31.6267 62.8067 31.4133 62.9667 31.24C63.2867 30.88 63.6867 30.6133 64.1667 30.44C64.6467 30.2667 65.1534 30.16 65.6867 30.12C66.2334 30.0667 66.7534 30.04 67.2467 30.04H71.7267C71.4467 30.32 71.0201 30.54 70.4467 30.7C69.8867 30.8467 69.2734 30.96 68.6067 31.04C67.9401 31.1067 67.2934 31.1733 66.6667 31.24C66.0534 31.2933 65.5467 31.3667 65.1467 31.46C64.4401 31.62 63.9001 31.9267 63.5267 32.38C63.1667 32.8333 62.9934 33.38 63.0067 34.02ZM65.6867 37.82H69.5267C69.6867 36.94 69.8734 36.06 70.0867 35.18C70.3134 34.3 70.5134 33.5267 70.6867 32.86C69.8734 33.6333 69.0401 34.44 68.1867 35.28C67.3467 36.1067 66.5134 36.9533 65.6867 37.82ZM75.6683 44C75.3883 44 75.1816 43.9 75.0483 43.7C74.9283 43.5 74.8683 43.2267 74.8683 42.88C74.8683 42.68 74.8883 42.46 74.9283 42.22C74.9683 41.98 75.0149 41.7267 75.0683 41.46C75.2283 40.7533 75.4749 39.9733 75.8083 39.12C76.1549 38.2533 76.5483 37.3667 76.9883 36.46C77.4416 35.54 77.8949 34.6467 78.3483 33.78C78.8149 32.9133 79.2483 32.12 79.6483 31.4C79.6749 31.3467 79.7283 31.2467 79.8083 31.1C79.9016 30.9533 79.9749 30.8467 80.0283 30.78C79.5083 30.7933 78.9483 30.86 78.3483 30.98C77.7616 31.0867 77.1949 31.24 76.6483 31.44C76.1149 31.64 75.6549 31.8733 75.2683 32.14C74.8949 32.4067 74.6549 32.7 74.5483 33.02C74.5349 33.06 74.5083 33.08 74.4683 33.08C74.3483 33.08 74.2883 32.9867 74.2883 32.8C74.2883 32.76 74.3016 32.7 74.3283 32.62C74.4616 32.2733 74.6149 31.9667 74.7883 31.7C74.9616 31.4333 75.1416 31.2067 75.3283 31.02C75.7683 30.5667 76.2616 30.2933 76.8083 30.2C77.3549 30.0933 77.9349 30.04 78.5483 30.04H83.0883C82.7949 30.2667 82.4483 30.68 82.0483 31.28C81.6483 31.8667 81.2349 32.5333 80.8083 33.28C80.6216 33.6133 80.3883 34.0467 80.1083 34.58C79.8283 35.1133 79.5349 35.7067 79.2283 36.36C78.9216 37 78.6283 37.6467 78.3483 38.3C78.0683 38.9533 77.8283 39.5733 77.6283 40.16C77.4283 40.7333 77.3016 41.2267 77.2483 41.64C77.2349 41.7067 77.2283 41.7733 77.2283 41.84C77.2283 41.8933 77.2283 41.9533 77.2283 42.02C77.2283 42.3933 77.3283 42.7067 77.5283 42.96C77.7283 43.2 78.1016 43.32 78.6483 43.32C79.3549 43.32 80.0683 43.2933 80.7883 43.24C81.5216 43.1733 82.2349 43.04 82.9283 42.84C83.5149 42.6667 84.0483 42.4333 84.5283 42.14C85.0083 41.8467 85.3549 41.48 85.5683 41.04C85.5949 40.9867 85.6283 40.96 85.6683 40.96C85.7616 40.96 85.8083 41.0333 85.8083 41.18C85.8083 41.2067 85.8016 41.24 85.7883 41.28C85.7883 41.32 85.7816 41.3667 85.7683 41.42C85.6616 41.7667 85.5349 42.0733 85.3883 42.34C85.2416 42.6067 85.0949 42.8333 84.9483 43.02C84.5749 43.4733 84.0883 43.7533 83.4883 43.86C82.9016 43.9533 82.3149 44 81.7283 44H75.6683Z" fill="white"/>
</svg>
