<?xml version="1.0" encoding="utf-8"?>
<!-- Generator: Adobe Illustrator 23.0.5, SVG Export Plug-In . SVG Version: 6.00 Build 0)  -->
<svg version="1.1" id="Layer_1" xmlns="http://www.w3.org/2000/svg" xmlns:xlink="http://www.w3.org/1999/xlink" x="0px" y="0px"
	 viewBox="0 0 186 50" style="enable-background:new 0 0 186 50;" xml:space="preserve">
<style type="text/css">
	.st0{fill:url(#SVGID_1_);}
	.st1{fill:#FAFAFB;}
	.st2{fill:#FFFFFF;}
	.st3{fill:url(#SVGID_2_);}
</style>
<g>
	<linearGradient id="SVGID_1_" gradientUnits="userSpaceOnUse" x1="-2302.3923" y1="-4483.9927" x2="966.9563" y2="-3966.1787">
		<stop  offset="0" style="stop-color:#223870"/>
		<stop  offset="0.4751" style="stop-color:#223E7B"/>
		<stop  offset="1" style="stop-color:#22468D"/>
	</linearGradient>
	<path class="st0" d="M705.7-3802.2h-2746.8c-152.1,0-275.4-123.3-275.4-275.4v-295c0-152.1,123.3-275.4,275.4-275.4H705.7
		c152.1,0,275.4,123.3,275.4,275.4v295C981.1-3925.5,857.8-3802.2,705.7-3802.2z"/>
	<g>
		<g>
			<path class="st1" d="M-291.7-4168.8c-35-7.7-99,18.6-101-44.7c-2-65.6,66.3-43.1,107.3-49.7c102.4,9,78.7,5.3,78.7,123.3
				c2.9,166.4-29.9,195.3-210.3,184.4c-72.7-4.4-137.1-89.5-140.2-156c-0.6-122.5,3.7-140.6,5.7-235.6c2.9-139,217.9-184.4,326.6-88
				c26.9,23.8,36,32.7,2,65.7c-31.6,30.7-73-6.1-104.3-24.4c-17.6-10.3-135.4-8.7-134.3,89c0.6,51.6-5.5,144.7-3.4,193.4
				c2,44.6,35.6,74.5,105.7,76.1C-279.2-4036.4-293.8-4072.8-291.7-4168.8z"/>
		</g>
		<g>
			<path class="st2" d="M632.9-4485.1c44.4,0.9,86.5,12.1,126.3,31.2c26,12.5,36,35.3,23.4,60.4c-11,22-32.2,25.3-56.3,15.2
				c-31.4-13.1-63.9-22.6-98.8-22.3c-39.9,0.3-74.6,9-82.3,54.4c-8.7,51.4,28.8,67.6,67.9,78c30.4,8.1,62.5,9.8,93,17.7
				c68.2,17.5,110.4,57.7,111.5,133c1.2,77.8-33.9,135.1-105.7,155.7c-77.1,22-153.8,18.2-226.4-20.7
				c-28.5-15.3-61.3-29.4-39.4-70.4c19.6-36.8,48.5-21.7,75.1-7.4c41.7,22.3,85.6,36.6,133,28.2c38.1-6.7,69.6-24.6,71.9-69.5
				c2.2-43.3-28.5-58.9-62.9-68.2c-20.9-5.7-43.3-5.8-64.7-9.9c-104.4-19.8-158.8-80.2-148.8-164.8
				C460-4432,530.8-4486.3,632.9-4485.1z"/>
		</g>
		<g>
			<path class="st2" d="M140.3-4484c44.4,0.9,86.5,12.1,126.3,31.2c26,12.5,36,35.3,23.4,60.4c-11,22-32.2,25.3-56.3,15.2
				c-31.4-13.1-63.9-22.6-98.8-22.3c-39.9,0.3-74.6,9-82.3,54.4c-8.7,51.4,28.8,67.6,67.9,78c30.4,8.1,62.5,9.8,93,17.7
				c68.2,17.5,110.4,57.7,111.5,133c1.2,77.8-33.9,135.1-105.7,155.7c-77.1,22-153.8,18.2-226.4-20.7
				c-28.5-15.3-61.3-29.4-39.4-70.4c19.6-36.8,48.5-21.7,75.1-7.4c41.7,22.3,85.6,36.6,133,28.2c38.1-6.7,69.6-24.6,71.9-69.5
				c2.2-43.3-28.5-58.9-62.9-68.2c-20.9-5.7-43.3-5.8-64.7-9.9c-104.4-19.8-158.8-80.2-148.8-164.8
				C-32.5-4430.9,38.3-4485.2,140.3-4484z"/>
		</g>
		<g>
			<path class="st1" d="M-1155.1-4412c-144.5-42.4-214.8,71.7-214.8,71.7s-54.2,75.6-25.2,199.5c29,123.9,114.2,132.5,172.9,135.7
				c58.7,3.2,104.5-9.6,141.3-24.7c0,0,13.3-6.1,13.4-23.1s0.5-46.3,0.5-46.3s-6.7-15.5-21.3-8.4c-14.6,7.1-49.4,26.8-98,26.8
				c-48.5,0-77.2-8.5-93.2-31.1c-16-22.5-20.1-46-21.4-60s11.7-14,11.7-14l208.9,2.5c0,0,29.7-2.7,32.4-31.1c0.1,0,0.1-3.9,0.1-3.9
				S-1027.3-4365.7-1155.1-4412z M-1146.5-4266c-1.1,6.6,0,9.3-5.4,10.8c-5.3,1.6-139.2-0.2-139.2-0.2s-9.7-0.7-8-12
				c1.7-11.3,2.8-72.7,69.6-80.3c66.8-7.6,79.8,53.2,79.8,53.2S-1145.5-4272.5-1146.5-4266z"/>
		</g>
		<g>
			<path class="st1" d="M-724.4-4157h-197.4c-4.7,0-8.5-3.8-8.5-8.5v-74.3c0-4.7,3.8-8.5,8.5-8.5h197.4c4.7,0,8.5,3.8,8.5,8.5v74.3
				C-715.9-4160.8-719.7-4157-724.4-4157z"/>
		</g>
		<g>
			<g>
				<polygon class="st1" points="-1675.6,-4362.6 -1675.6,-4361.6 -1674,-4358.5 -1673.6,-4358.5 -1673.2,-4359.7 -1674.3,-4361.5 
									"/>
			</g>
			<g>
				<polygon class="st1" points="-1639.4,-4332.9 -1642.5,-4340.7 -1646.6,-4349 -1652.7,-4358.9 -1658.3,-4367.6 -1659.2,-4367.3 
					-1659.2,-4366.5 -1654.3,-4358.3 -1647.3,-4347.5 -1643.2,-4340.4 -1634.5,-4318.8 				"/>
			</g>
			<g>
				<polygon class="st1" points="-1667.4,-4367 -1666.9,-4368.3 -1667.9,-4370.5 -1668.5,-4370.8 -1668.7,-4368.5 -1666.8,-4364.1 
					-1666.9,-4363.2 -1665.7,-4362.1 -1665.4,-4363 -1665,-4363.1 -1666.2,-4366 				"/>
			</g>
			<g>
				<polygon class="st1" points="-1710.4,-4363.4 -1713.2,-4364 -1712.5,-4361 -1711.9,-4360.5 -1710.5,-4360.5 -1709.3,-4360.8 
					-1709.7,-4362.5 				"/>
			</g>
			<g>
				<path class="st1" d="M-1720.8-4444.9v1.3l2.1,2.5l0.4,2.7l-1-0.1l-1.6-2.5l0.2,1.3l-0.6,0l0.4,0.9l-0.3,0.6l3.2,3.6l0.6,2.6
					l6.9,7.1l1.1,2.4l1,0.4l0.5,2.3l2.9,1.3l1.9,2l1.5-0.6l0.9-1.4l-1.6-3.4l-1.2-2.7l0.9-1.4l1.5,1.1l1.8-0.4v-3.9l-5.7-5.2
					l-5.9-3.3l-2-0.1l-2.1-1.7h0.3l-3.8-5l-1.4-0.3l-0.9-1.9l-1.5-1.4l0.4,2.4L-1720.8-4444.9z M-1716.7-4438.5h1.1l0.6,0.3l0-1.3
					l1.3,1.2l-0.2,1l1.3,1.1l0.1,1.1l1.7,2.3l-3.4-3l-0.8-0.6h-0.5l-1.6-0.9L-1716.7-4438.5z"/>
			</g>
			<g>
				<path class="st1" d="M-1668.2-4378.5l0.4-1.6l-0.9-1.9l-2.2-4.7l-5.8-8.8l-6.7-9.4l-0.7,0.5l-0.9-0.4l1.2,1.5l1,2l-0.8,1.6
					l-2.4-1.9l-0.4,2.1l1.6,0.8l0.2,2.6l-1.1-0.9l1.1,4.1l-2-3.1l0.3-1.7l-0.9-0.6l-0.4,1l-1-0.8l0.7,2.4l-2.1-3.3l-1.9-2.4
					l-0.5,0.1l0.7,2l-0.6,0.4l-1.3-2.5l-1.9-1.9l0.4-0.9l-1.2-0.7l-0.5,0.5l-1.9-2.7l-1.9-3.2l-1.5-1l-1.2,1.3l-1.2-0.8v1.1l3.1,3.6
					l-0.2,0.4l-2.4-2.1l-0.3,1.4l1.3,1.5l1.8,0.9l1.6,2.4l0.9,0.6l0.2-1.3l1.5,0.9l1.8,1.2l0.1,1.3l2.1,3.6l-0.4,0.6l0.4,1.1
					l2.5,2.8l-1,0.3l-1.8-1.7l-0.2,0.4l1.1,1.1l-0.3,0.6l-3.4-4.3l-0.8,0.2l-3.3-3.3l-0.9-1.3l-0.9,0.2l-0.9-1.5l-1.2,0.2l-1.3-2.5
					l-1.2,0.2l-0.4-1l-1,0.2l-2.1-2.9l0.5-0.6l-2.2-2.1l-3.2-1.9l-2.9-0.4l-0.8,1.3l-2.7-2.3l-3.2-1.1l-0.6-1l-1.1,0.2l-3.5-3
					l-0.6,1.2l-2.7-1.7l-0.4-1.4l-1.1,0.4l0.2,1.2l-1,0.7l2.2,3.5l2.2,2h2.1l0.8,1.1l0.7-0.8l1.2,0.4l3.5,3.3h1.4l1.5,1.8l1.6-0.2
					l0.9-1.4l1.3,2.2l1.5,0.8l0.5-0.5l2.2,0.5l0.9,0.9l1.3-0.3l2.7,3l-0.4,0.6l-1.1-1.1l-1.8-0.5l0.4,1.9l1.6,1.9l0.9,0.2l1.9,2
					l1.6,3.8l-1,3.1l1,2.5l1.2,0.1l1.2,1.8l-0.9,1.2l-1.3-0.9l-1.5,0.3l-1.4-1.1l-1.8,0.1l-2.1-2.3h1.3l0.8-1.2l2-0.8v-1.2l0.8-0.7
					l-1-2.1l-2.4-3.2l-2.6-2.5l-0.8,0.5l-1.2-0.5l-1.1-1.4l-2.4,0.2l-1.4-1.3l-1,0.2l-4.6-1.6l-5-2.2l-4.1-3.6l-0.7,0.4l-1.2-1.3
					h-1.7l-1.1,0.9l0.9,3.1l-0.7,0.8l0.7,2.9l-1.3,1.6l-1.8-0.1l-0.4-1l-3.7-0.9v2l-0.8,2.7l3.9,3.8l-0.4,4.9l-1.9,0.9l0.5,3l-1,2.9
					l1.1,1l0.9,2.8l2,1l0.2,2.1l0.6,2.6v1l-1.5,2.1l0.6,2.9l-1.8,2l-0.3-0.7h-1.8l-0.3,1.4l-2-0.4v0.8l-1,0.3v1.5l-1.6,1.6l1,2.8
					l2.7,1.3h2l2.5-1.2l2.4-0.6l1.8,0.5l1.7-2l0.4-2.9l2.1-2.2l0.8-2.6l2.7-1.9l2.4-0.4l-0.7-1.2l1.4-0.4l1.7-2.1l1.9,0.2l3-1.8
					l0.1-0.7l2.1-1.1l2.2,0.2l0.9-2.3l-0.4-0.6l1-1.6l1,0.4l0.8,0.9l1.4,0.3l0.5-1l1.2,2.2l-0.8,0.7l0.8,1.6l1.9,0.9l0.7,1.3
					l1.2,0.5l1,2.4l-0.7,1.6l0.3,1.7l1.3,1.8l0.9-0.2l0.8,0.8l1-0.9l1.4,2.1l3.5,0.2l0.6-1l2.7-0.9l1.2,1l1.5-0.4l1.6,3l2.7,1.6
					l0.5-2.1l1.6,0.9h2.2l1.9,2.1h1.6l0.9-1.4l-1.7-3.7l-2.1-2.4l-2.3-5.8l1-1.5l-0.1-1.2l1-0.8l2.3,1.9l0.5-0.4l0.7,0.8l0.8-0.7
					l2.4,0.9l0.7-1.6l1.3,0.9l1.1,0.1l1.3-1.9l-1.4-3.9l1.5,0.1L-1668.2-4378.5z M-1733.5-4384.1l1,2.9l-0.8,1.1l-2.8-2v-2.1
					l1.8-0.4l0.4-1.6l1.3-0.3l0.9,1.6L-1733.5-4384.1z M-1718.7-4386.7l-1.2,1.4l-2-1.7l-1.6-2.9l-2.4-3.5v-2.3l-3.3-1.7l-2.5-3.4
					l0.9-0.5l-0.1-2.1l5.7,7.5l2.2,1.8l4.3,5.8V-4386.7z M-1684.3-4386.3l-0.6-0.5l-1,0.6v1.3l-2.1-2.4v-2.1l1.1,1.4l0.9,0l0.7-1.5
					l1.3,2.3L-1684.3-4386.3z M-1678.7-4394.4h-0.6l-1.5-3.1v-2.1l2.3,3.2l-0.4,0.6L-1678.7-4394.4z"/>
			</g>
			<g>
				<polygon class="st1" points="-1976,-4498.8 -1975.2,-4497.6 -1974.3,-4499.2 				"/>
			</g>
			<g>
				<polygon class="st1" points="-1974.1,-4505.2 -1973.1,-4505.2 -1972.3,-4506.3 				"/>
			</g>
			<g>
				<polygon class="st1" points="-1995.6,-4491.9 -1997.4,-4491.4 -1998.1,-4492.3 -1999.5,-4491.7 -2000.3,-4490.3 
					-2002.8,-4489.2 -2003.7,-4490.6 -2005.1,-4489.5 -2003.9,-4488 -2005.9,-4484.9 -2003.5,-4486.3 -2001,-4485.9 
					-1998.7,-4487.7 -1999.1,-4488.5 -1997.3,-4489.4 -1998.3,-4489.8 -1995.3,-4490.6 				"/>
			</g>
			<g>
				<polygon class="st1" points="-1996.7,-4505.1 -2004.9,-4503.8 -2001.1,-4503.3 -2000.3,-4502.9 -2003.7,-4501 -2006.1,-4499.9 
					-2005.5,-4499.1 -2002.9,-4499.4 -2004.9,-4498.2 -2006.4,-4498.6 -2006.8,-4497.2 -2002.9,-4497.4 -2000.6,-4497.6 
					-1999.7,-4496.3 -1998.1,-4496.9 -1994.5,-4498.2 -1995.9,-4499.2 -1993.8,-4501.3 -1996.8,-4500.5 -1998.3,-4498.8 
					-1999.9,-4499.7 -1998.6,-4501.3 -1999.1,-4502.8 -1993.8,-4504.8 				"/>
			</g>
			<g>
				<polygon class="st1" points="-1929.9,-4507.7 -1931.1,-4505.7 -1934.1,-4507.2 -1936.8,-4507.2 -1939.2,-4506.2 
					-1940.3,-4504.1 -1942.4,-4504.1 -1945.4,-4503.2 -1946,-4501.9 -1943.1,-4502.3 -1944.7,-4500.5 -1946.1,-4499.7 
					-1947.2,-4500 -1950.5,-4499 -1953.2,-4499 -1954.2,-4498.1 -1953.5,-4496.4 -1952.3,-4497 -1951.6,-4496.2 -1950.7,-4496.5 
					-1949.5,-4496.1 -1948.2,-4496.3 -1947.1,-4495.3 -1948.9,-4495.3 -1949.8,-4495.2 -1950.1,-4495.8 -1951.3,-4495.6 
					-1951.9,-4495.2 -1954.3,-4495.4 -1955.1,-4495.1 -1954.6,-4493.9 -1954.6,-4493.1 -1953.7,-4492.2 -1951.7,-4492.1 
					-1950.8,-4491.5 -1950,-4492.3 -1947.7,-4492.5 -1946.8,-4491.6 -1946.4,-4492.8 -1945.3,-4492.8 -1944.5,-4491.7 
					-1943.9,-4492.4 -1943,-4491.3 -1941.8,-4492.1 -1941.3,-4491 -1940.3,-4490.9 -1939.7,-4489.3 -1937.2,-4487.1 
					-1937.2,-4485.7 -1937.9,-4485.4 -1937,-4484.1 -1935.4,-4483.7 -1935.2,-4482.8 -1936.3,-4482 -1937.6,-4480.7 
					-1937.2,-4478.5 -1934.5,-4478.5 -1934.9,-4479.4 -1933.2,-4479.8 -1932.6,-4478.2 -1931.4,-4477.9 -1931.2,-4477.3 
					-1929.9,-4476.4 -1930.7,-4475.4 -1931,-4476.4 -1932.4,-4476.4 -1932.6,-4475.7 -1933.4,-4476.3 -1935.2,-4476.6 
					-1935.3,-4475.6 -1936.4,-4474.4 -1936.2,-4472.6 -1934.6,-4472.4 -1932.7,-4471.6 -1932.6,-4472.3 -1930.8,-4472.6 
					-1930.8,-4474.2 -1930.4,-4474.4 -1929.5,-4473.5 -1928.2,-4473.4 -1928.1,-4471.9 -1929,-4471.3 -1929.9,-4469.4 
					-1931.8,-4469 -1932.9,-4467.3 -1934.5,-4466.4 -1934.1,-4464.1 -1932.7,-4464.1 -1933.1,-4462.1 -1934.3,-4462.1 
					-1934.4,-4460.9 -1931.6,-4458.9 -1930.1,-4457.1 -1930.4,-4455.1 -1928.9,-4454.1 -1926.6,-4451.8 -1926.9,-4450.9 
					-1925.7,-4449.2 -1923.8,-4447.8 -1923.2,-4445.7 -1919.2,-4443 -1915.6,-4442.6 -1915.6,-4444 -1912.6,-4444.4 
					-1913.1,-4442.6 -1911.8,-4441.9 -1911.7,-4440.5 -1909,-4440.2 -1907.1,-4439.8 -1906.2,-4440.6 -1906.7,-4443.2 
					-1906.2,-4445.4 -1905.1,-4447.4 -1906.4,-4449.5 -1903.4,-4453.6 -1904,-4454.3 -1903.7,-4455.3 -1904,-4456 -1903.7,-4456.9 
					-1904.5,-4458.6 -1903.1,-4459.3 -1903.4,-4460.7 -1902.4,-4461.9 -1901.3,-4461.1 -1900.7,-4461.1 -1901.3,-4463.3 
					-1899.9,-4463 -1899.2,-4461.1 -1898.4,-4461.1 -1896.2,-4462.1 -1896.2,-4464.2 -1894.2,-4464.7 -1893.1,-4466.9 
					-1893.1,-4468.8 -1892.2,-4469.3 -1892.4,-4470.2 -1887.9,-4471.4 -1888.5,-4472.2 -1885.8,-4472.4 -1884.4,-4473.1 
					-1883.2,-4474.2 -1882.4,-4473.7 -1881.3,-4475 -1881.8,-4476.4 -1880.9,-4477.5 -1879.8,-4477.2 -1879.4,-4478.7 
					-1880.8,-4479 -1884.5,-4479.4 -1885.6,-4478.3 -1886.9,-4479.4 -1885.8,-4480.1 -1887.1,-4482 -1886.3,-4483 -1883.6,-4480.8 
					-1881,-4479.4 -1879.2,-4480.9 -1882.3,-4483.6 -1882.9,-4483 -1883.7,-4483.8 -1884.9,-4484.2 -1883.7,-4484.7 -1885.3,-4486 
					-1886.4,-4487.5 -1887.6,-4488.2 -1887.2,-4488.6 -1885.3,-4489.2 -1888,-4491 -1887,-4491.3 -1889.2,-4493.4 -1889.5,-4492.7 
					-1891,-4493.9 -1889.5,-4493.9 -1890.5,-4495.1 -1892.8,-4496.2 -1896.1,-4496.3 -1897.4,-4497.4 -1894.5,-4497.8 
					-1896.9,-4500.3 -1898.4,-4500 -1897.5,-4498.6 -1899.2,-4499 -1899.2,-4500.3 -1900.9,-4502.1 -1900.5,-4502.9 -1901.6,-4504 
					-1900.7,-4504.8 -1902.3,-4505.2 -1902.3,-4504.1 -1903.7,-4504.9 -1902.9,-4505.7 -1903.2,-4507.5 -1905.1,-4508.2 
					-1907.4,-4508.2 -1907.4,-4506.6 -1908.5,-4506.2 -1908.5,-4507.9 -1910.3,-4508.5 -1912,-4507.2 -1912.8,-4508.3 
					-1915.8,-4507.8 -1916.7,-4506.2 -1917.6,-4506.2 -1917.2,-4508.1 -1915.1,-4508.5 -1913.5,-4509.3 -1914.3,-4510.1 
					-1918.9,-4510.9 -1922.2,-4510.7 -1922.8,-4509.3 -1922.8,-4508.2 -1924.8,-4507.2 -1925.9,-4507.2 -1925.9,-4506.1 
					-1927.6,-4506.8 				"/>
			</g>
			<g>
				<polygon class="st1" points="-1981.9,-4503.2 -1982.1,-4504 -1985.2,-4502.6 -1982.5,-4502.9 -1981.4,-4502.6 -1982.2,-4502.1 
					-1982.3,-4501.1 -1981.1,-4501.1 -1980.3,-4501.6 -1980.4,-4502.4 -1979.2,-4503.1 -1979.2,-4504.1 -1980.4,-4504.1 				"/>
			</g>
			<g>
				<polygon class="st1" points="-1996.7,-4450.8 -1997.8,-4450.8 -1999.6,-4448.7 -1997,-4448.7 				"/>
			</g>
			<g>
				<polygon class="st1" points="-1996.6,-4496.8 -1997.3,-4495.9 -1996.3,-4495.9 -1995.3,-4497 				"/>
			</g>
			<g>
				<polygon class="st1" points="-2000,-4456.9 -1998.6,-4457.1 -1997.4,-4459.4 -1999.3,-4461.9 -2000.8,-4462.1 -2000.8,-4464 
					-2001.5,-4464.4 -2005.3,-4461.2 -2007.6,-4458.4 -2007.2,-4456.9 -2008.7,-4454.9 -2006.5,-4454.9 -2004.3,-4457 
					-2003.1,-4456.9 -2001.9,-4458.4 -2000.6,-4458.1 				"/>
			</g>
			<g>
				<polygon class="st1" points="-2007.1,-4451.3 -2005.1,-4450.8 -2001.4,-4452.5 -2001.6,-4453.7 -2005.2,-4453.4 				"/>
			</g>
			<g>
				<path class="st1" d="M-1926.9-3992.3l11-11.3l3.8,1.1l2.5-5.4l5.1-1.6l1.9-5.1l-2.5-2.9l6-7.6l15.2-7.6l10.4-1.3l10.1-10.4
					l9.8-22.8l-1.2-10.5c-75.3-13.4-167.7-18.6-196.8-20l-1.4,3.7l11.8,18l28.8,19.9l5.7,31.9l-1.9,11.4l4.7,17.1l-4.4,13.9l7,30.3
					l11.1,10.7l28.8,5.4l-14.2-9.2l8.5-7.3l-8.9-2.2l0-3.2l6-0.9v-4.6l-0.6-6.2h9.9v-6.2l19.6-1.4l-1.1-8.9l-15.7-10.1l9.2,3.8
					l1.9-5.1l0.6,6.6l14.9,4l9.5-6.4H-1926.9z"/>
			</g>
			<g>
				<polygon class="st1" points="-2007.5,-4490.2 -2007,-4490.8 -2005.9,-4490.8 -2004.9,-4492.7 -2004.9,-4493.9 -2006.8,-4493 
					-2007.2,-4492.5 -2008.3,-4492.9 -2012.5,-4489.5 -2015.1,-4488.8 -2010.5,-4493.4 -2013.8,-4492.4 -2012.7,-4496.3 
					-2009.8,-4499 -2012.1,-4499 -2011,-4500.5 -2014.4,-4501 -2017.5,-4499.3 -2024.3,-4497.3 -2028.9,-4493.6 -2026.6,-4493.9 
					-2019,-4495.5 -2023.8,-4492.6 -2024.6,-4491.3 -2026.5,-4491.8 -2027.7,-4490.4 -2025.8,-4489.4 -2024.6,-4489.8 
					-2022.9,-4488.5 -2024.8,-4487.4 -2027.6,-4488.7 -2029.8,-4489.1 -2032,-4486.9 -2030.4,-4485.8 -2032.9,-4483.6 
					-2031.5,-4482.6 -2031.5,-4481.6 -2028.6,-4482.5 -2027.5,-4481.6 -2025.8,-4482.5 -2024.3,-4481.6 -2022.2,-4482.9 
					-2022.4,-4480.4 -2019.1,-4479.7 -2017.4,-4480.8 -2018.6,-4481.5 -2016.1,-4482.3 -2015.7,-4481.5 -2013.6,-4482.7 
					-2014,-4485 -2012.2,-4487.2 				"/>
			</g>
			<g>
				<polygon class="st1" points="-1979.7,-4499.2 -1978,-4498.8 -1977.2,-4500 -1978.5,-4500 -1976.7,-4501.5 -1976.4,-4502.6 
					-1977.1,-4502.9 -1979,-4502.1 -1978.6,-4501.3 -1980,-4500.1 				"/>
			</g>
			<g>
				<polygon class="st1" points="-1983.8,-4457.6 -1982.8,-4456.9 -1980.3,-4460.3 -1982.3,-4459.3 -1983.6,-4460 -1984.4,-4460 
					-1985.4,-4461.3 -1988.9,-4458 -1987.7,-4456.9 -1985.4,-4457.2 -1985.4,-4456.9 				"/>
			</g>
			<g>
				<polygon class="st1" points="-1976.5,-4468.6 -1977.3,-4470.3 -1979.8,-4469.9 -1981.7,-4467.7 -1981.2,-4467 -1977.3,-4467.4 
									"/>
			</g>
			<g>
				<polygon class="st1" points="-1796.1,-4426.2 -1795.2,-4427.2 -1797.7,-4430.3 -1798.7,-4430.3 -1798.7,-4431.5 
					-1800.6,-4433.3 -1799.6,-4433.8 -1800,-4434.8 -1802.8,-4437.2 -1803.8,-4437 -1804.3,-4437.8 -1804.9,-4437.5 
					-1804.9,-4436.7 -1805.7,-4436.4 -1806.9,-4437.8 -1808,-4437.4 -1807.7,-4436.1 -1807.9,-4435.6 -1806.6,-4433.3 
					-1807,-4432.3 -1809.5,-4431.7 -1807.6,-4428.4 -1805.8,-4428.4 -1803.6,-4426.3 -1804.5,-4425.5 -1803.9,-4424.3 
					-1805,-4423.7 -1802.6,-4421.6 -1802.2,-4422.5 -1799.4,-4421.8 -1797.4,-4423.3 -1798,-4424.6 -1796.7,-4426.2 				"/>
			</g>
			<g>
				<polygon class="st1" points="-1993.6,-4497 -1990.7,-4498.4 -1992.1,-4498.8 -1992.5,-4498.2 -1993.6,-4497.9 				"/>
			</g>
			<g>
				<polygon class="st1" points="-1991.9,-4504.5 -1993.3,-4503.1 -1991.2,-4502.9 -1989,-4504.1 -1990.5,-4504.1 -1990.1,-4505.1 
									"/>
			</g>
			<g>
				<polygon class="st1" points="-1972.9,-4489.1 -1971.2,-4489.6 -1969.4,-4491.2 -1970.1,-4492.8 -1971.6,-4493.5 
					-1978.9,-4492.7 -1979.2,-4494.7 -1977.3,-4495.9 -1978.5,-4497 -1979.8,-4496.4 -1980.5,-4497.9 -1982.2,-4498.8 
					-1984.4,-4496.9 -1983.3,-4496.9 -1982.8,-4496.9 -1981.3,-4496.9 -1981.7,-4494.9 -1985.2,-4492.8 -1985.2,-4492 
					-1983.6,-4491.2 -1981.5,-4492 -1982.2,-4490.3 -1978.7,-4489.8 -1976.2,-4489.8 -1975.1,-4490.8 -1975.1,-4489.8 				"/>
			</g>
			<g>
				<polygon class="st1" points="-1985.5,-4497.8 -1985.8,-4498.3 -1987,-4497.9 -1987.4,-4498.8 -1989.4,-4497.4 -1989,-4498.8 
					-1991.1,-4497.1 -1990.2,-4496.5 -1992.6,-4495.6 -1993,-4494.9 -1991.1,-4494.9 				"/>
			</g>
			<g>
				<polygon class="st1" points="-1986.3,-4505.8 -1987.4,-4505.1 -1987.4,-4504.1 -1986.4,-4504.1 -1985.2,-4505.5 				"/>
			</g>
			<g>
				<polygon class="st1" points="-1988.1,-4492 -1986.6,-4493.1 -1985.4,-4494.9 -1986.7,-4494.9 -1987.5,-4494.6 -1989.1,-4494.2 
					-1989.3,-4493.1 -1988.3,-4493 				"/>
			</g>
			<g>
				<polygon class="st1" points="-1886.3,-4522.6 -1879.7,-4522.6 -1884.4,-4523.9 -1888.8,-4525 -1886.7,-4523.8 -1891.2,-4523.4 
									"/>
			</g>
			<g>
				<polygon class="st1" points="-1967.4,-4219 -1969,-4219 -1969,-4215.9 -1967,-4217.5 				"/>
			</g>
			<g>
				<polygon class="st1" points="-1852.1,-4509.3 -1847.3,-4509.1 -1852.9,-4510.9 -1850.3,-4509.6 -1853.9,-4510.1 				"/>
			</g>
			<g>
				<polygon class="st1" points="-1862.3,-4468.2 -1863.3,-4468.2 -1863.2,-4467.9 -1864.8,-4467.8 -1865,-4466.9 -1864.6,-4466.2 
					-1866.2,-4466.3 -1867.4,-4467.5 -1868.1,-4467.5 -1869.1,-4468.4 -1870,-4468.3 -1871.5,-4467.2 -1871.5,-4465.2 
					-1869.5,-4463.8 -1869.5,-4462.1 -1866.3,-4462.5 -1864.4,-4462.1 -1863,-4460.6 -1864.8,-4460 -1863,-4459.5 -1861.1,-4460.7 
					-1859.6,-4459.9 -1858.2,-4460.3 -1857.6,-4460 -1855.1,-4460 -1853.6,-4459.9 -1853.8,-4461.4 -1852.5,-4461.5 
					-1852.1,-4462.2 -1852.1,-4463.1 -1851.5,-4463.8 -1850.3,-4463.1 -1849.2,-4464.1 -1850.7,-4465.6 -1850.2,-4465.8 
					-1849.6,-4465.5 -1849.7,-4466.4 -1851.6,-4468.2 -1853.1,-4468.2 -1855.3,-4470.1 -1858.4,-4470.4 -1858.2,-4469.5 
					-1858.9,-4469.1 -1860.7,-4468.9 -1861.8,-4468.7 -1861,-4468.3 -1861.7,-4467.8 				"/>
			</g>
			<g>
				<polygon class="st1" points="-1863.1,-4509.3 -1866.9,-4511.9 -1876.9,-4512.7 -1874.2,-4513.3 -1877.8,-4515.4 
					-1881.8,-4515.4 -1879.2,-4514.1 -1884.1,-4514.6 -1880.2,-4512.8 -1881.6,-4512.7 -1878.3,-4511.4 -1883.7,-4512.5 
					-1880.1,-4511.3 -1882.5,-4511 -1874.8,-4508.4 -1874.2,-4508.9 -1871.3,-4507.9 -1874.2,-4510.2 -1869.8,-4508.4 
					-1865.6,-4506.3 -1867.6,-4507.9 -1863.1,-4507.2 -1873.7,-4511.3 -1870.5,-4511.3 				"/>
			</g>
			<g>
				<polygon class="st1" points="-1886.9,-4521 -1883.3,-4520.2 -1877.7,-4521 -1884.1,-4521.6 				"/>
			</g>
			<g>
				<polygon class="st1" points="-1876.1,-4522.6 -1873,-4522.8 -1879.7,-4523.8 				"/>
			</g>
			<g>
				<polygon class="st1" points="-1966.7,-4494.4 -1965.3,-4493.8 -1963.6,-4495.9 -1962.8,-4495.9 -1960.9,-4497.9 
					-1959.5,-4497.3 -1957.5,-4497.9 -1955.1,-4500.8 -1952.7,-4501.7 -1950.4,-4501.1 -1949.4,-4502.1 -1948.5,-4502.1 
					-1946.6,-4504.1 -1945.6,-4503.8 -1943.4,-4506 -1939.9,-4506.6 -1938.7,-4508.5 -1940.3,-4507.6 -1940.4,-4509 -1941.7,-4508 
					-1942.5,-4508.7 -1943.8,-4509 -1944.9,-4508.3 -1945.7,-4509.3 -1947.4,-4509.3 -1949,-4508.8 -1950.4,-4509.7 
					-1952.3,-4509.3 -1954.6,-4507.8 -1955.1,-4509.3 -1957.6,-4507.8 -1960.5,-4508.5 -1963,-4506 -1960.9,-4504.1 
					-1962.6,-4504.4 -1963.5,-4503.2 -1963,-4502.6 -1963.8,-4501.1 -1965.4,-4501.7 -1963.6,-4504.7 -1964.7,-4504.9 
					-1965.2,-4506 -1963.2,-4507.5 -1967.8,-4506.8 -1972.8,-4504.1 -1970.9,-4503.1 -1972.3,-4502.4 -1974.6,-4501.7 
					-1973.7,-4501.3 -1973.5,-4500.5 -1969.6,-4499.4 -1972.4,-4498 -1973.9,-4497.6 -1977.2,-4495.9 -1976.2,-4495.9 
					-1975.9,-4494.9 -1973.1,-4495.4 -1973.1,-4493.9 -1971,-4494.9 -1970.1,-4494.1 -1968.1,-4494.9 -1968.3,-4492.9 				"/>
			</g>
			<g>
				<polygon class="st1" points="-1942.3,-3939.9 -1936.7,-3942.1 -1944.3,-3943.1 -1949.1,-3941.2 -1946,-3940.7 				"/>
			</g>
			<g>
				<polygon class="st1" points="-1680.8,-4399.5 -1680.8,-4397.5 -1679.3,-4394.4 -1678.7,-4394.4 -1678.9,-4395.7 
					-1678.5,-4396.3 				"/>
			</g>
			<g>
				<polygon class="st1" points="-2052.8,-4246.9 -2049.3,-4243.6 -2043.7,-4245.2 -2048.8,-4248.5 				"/>
			</g>
			<g>
				<polygon class="st1" points="-1685.9,-4387.8 -1686.8,-4387.8 -1687.9,-4389.3 -1687.9,-4387.2 -1685.9,-4384.8 
					-1685.9,-4386.2 -1684.9,-4386.8 -1684.3,-4386.3 -1683.9,-4387 -1685.2,-4389.3 				"/>
			</g>
			<g>
				<polygon class="st1" points="-1725.2,-4395.8 -1730.8,-4403.3 -1730.8,-4401.3 -1731.7,-4400.8 -1729.2,-4397.4 
					-1725.9,-4395.6 -1725.9,-4393.4 -1723.5,-4389.9 -1721.8,-4387 -1719.9,-4385.3 -1718.7,-4386.7 -1718.7,-4388.2 -1723,-4394 
									"/>
			</g>
			<g>
				<path class="st1" d="M-1935.1-3924.3l-2.1,0.7h-1.6l-4.5,1l-3-0.6l1.4,1.4l-4.8-0.7l2.3,0.9h-5.7l4.9,1l-2.6,1l-3.2-1l-3.4,0.5
					l-0.6-1.1l-4.7,0.9l-1.7,0.6c10.4,1.3,21,2,31.8,2.2l-4.4-0.9v-2.4l-4.5-1l10.8-1.5L-1935.1-3924.3z"/>
			</g>
			<g>
				<polygon class="st1" points="-2036.3,-4253.7 -2032.2,-4255.1 -2042.2,-4261.8 -2049.4,-4268.2 -2054.7,-4269.9 
					-2058.9,-4273.9 -2069.5,-4274.5 -2074.7,-4274.7 -2078.2,-4269.2 -2067.1,-4272.4 -2058.5,-4266.2 -2052.5,-4263.9 
					-2051.3,-4260.5 -2045.7,-4258.3 -2049.6,-4255.1 -2045.7,-4253.5 -2042.6,-4255.4 				"/>
			</g>
			<g>
				<polygon class="st1" points="-1997.4,-4243.6 -1999,-4242 -1996.3,-4241.8 -1995.3,-4240 -1991.5,-4240.5 -1991.5,-4242.7 
					-1994.6,-4243.6 				"/>
			</g>
			<g>
				<polygon class="st1" points="-1715.1,-4436.4 -1714.3,-4435.8 -1710.9,-4432.8 -1712.6,-4435.1 -1712.8,-4436.2 -1714,-4437.3 
					-1713.8,-4438.3 -1715.1,-4439.5 -1715.1,-4438.2 -1715.6,-4438.5 -1716.7,-4438.5 -1717.2,-4437.3 -1715.6,-4436.4 				"/>
			</g>
			<g>
				<polygon class="st1" points="-1827.1,-4461.4 -1827.7,-4462.1 -1829.3,-4462.7 -1829.8,-4461.6 -1828.8,-4461.1 
					-1827.8,-4461.1 				"/>
			</g>
			<g>
				<path class="st1" d="M-2022.8-4344.9l0.5-2c-0.3-0.1-0.6-0.2-0.9-0.3L-2022.8-4344.9z"/>
			</g>
			<g>
				<polygon class="st1" points="-1733.9,-4386.1 -1734.3,-4384.5 -1736.2,-4384.1 -1736.2,-4382.1 -1733.3,-4380.1 
					-1732.6,-4381.2 -1733.5,-4384.1 -1731.7,-4384.8 -1732.7,-4386.4 				"/>
			</g>
			<g>
				<polygon class="st1" points="-1815.8,-4447.9 -1814.6,-4445.4 -1814.1,-4445.3 -1814.1,-4446.7 -1812.8,-4446.7 
					-1812.1,-4445.2 -1809.5,-4444.3 -1808.5,-4443.3 -1808,-4441.5 -1806.5,-4442.3 -1805.6,-4441.1 -1805,-4439.8 
					-1803.4,-4439.1 -1801.8,-4439.4 -1800.7,-4437.1 -1800,-4436.7 -1797.7,-4437.7 -1797.7,-4439.5 -1796,-4438 -1796.9,-4437.5 
					-1795.2,-4435.9 -1793.4,-4435.4 -1791.5,-4433.5 -1791.5,-4432.3 -1793.6,-4432.3 -1793.7,-4430.5 -1792,-4430.3 
					-1790.4,-4428.7 -1791,-4427.2 -1790.4,-4426.5 -1791.7,-4426.2 -1790.7,-4425.2 -1788.8,-4426 -1786.4,-4425.5 
					-1785.8,-4424.6 -1787,-4423.8 -1786.8,-4420 -1784.4,-4420 -1783.1,-4421.2 -1783.4,-4423.1 -1781,-4423.3 -1777.6,-4425.5 
					-1775,-4426.6 -1774.6,-4428.6 -1775.5,-4429.2 -1776.5,-4428.6 -1777.6,-4429.1 -1777.9,-4431.6 -1778,-4433.4 
					-1779.2,-4433.4 -1780.3,-4434.4 -1781.3,-4434.6 -1782.3,-4434 -1780.7,-4431.6 -1782.1,-4431.4 -1784.8,-4434.1 
					-1783.8,-4434.5 -1785.3,-4436 -1787.5,-4437.7 -1790.6,-4439.2 -1791.9,-4438.9 -1796.1,-4441.6 -1796.5,-4442.5 
					-1798.7,-4442.7 -1799.4,-4443.6 -1800.5,-4443.1 -1801.8,-4444.9 -1801.8,-4445.7 -1802.6,-4447.2 -1802,-4447.9 
					-1803.7,-4449.3 -1805.9,-4449.5 -1805.8,-4448.2 -1806.6,-4447.7 -1807.9,-4447.7 -1809,-4449.5 -1808.3,-4449.9 
					-1809.3,-4450.8 -1810,-4450.8 -1811.4,-4450.2 -1812.7,-4450.2 -1811.4,-4448.1 -1810.9,-4445.3 -1814.2,-4448.8 				"/>
			</g>
			<g>
				<polygon class="st1" points="-1872.6,-3938 -1869.9,-3939 -1870.6,-3939.8 -1872.6,-3939 				"/>
			</g>
			<g>
				<polygon class="st1" points="-2027.6,-4242.6 -2020.8,-4240.9 -2014.9,-4244.5 -2008.8,-4243.6 -2006.1,-4242.5 
					-2005.1,-4244.2 -2008.3,-4247.6 -2012.1,-4247.7 -2012.1,-4250.3 -2014.2,-4250.6 -2019.8,-4253.5 -2021.6,-4252.4 
					-2024,-4251.7 -2028.8,-4253.5 -2025.8,-4249.5 -2025.9,-4247.6 -2025.1,-4246.7 -2027.2,-4244 -2030,-4245.5 -2029.5,-4246.7 
					-2032.2,-4246.7 -2034.1,-4244.1 -2031.5,-4242.6 				"/>
			</g>
			<g>
				<path class="st1" d="M-1916.4-4532.6l0.8,0.6l7.1,0.3l-2.7,0.8l3.8,0.6l-1.1,1.1l6,0.6l-0.8-0.9l3.9-0.6l-3.3-0.4l-1.5-0.7
					l2.7,0l5.5,0.4l16.2,2.4l2.2-0.1l5.3,1.2l8.2,1.7l17.6,4.3l-11.2-1.9l19.5,4.9l0.1-0.5l4.1,1.3l-0.9,0.7l1.1,0.7l-1.6,0.8
					l-4.9-0.8l-6.7-1.9l-9.5-2.4l-10.7-3.3l-4.5-0.7l16.2,5.3l8.5,1.8l6.4,2.1l5,1.5l-0.2-0.8l3.1,0.7l-1.3-1.6l4,0.3l3,1.1
					l-0.6,0.3l2.6,1l1.2,0.9l2.4,0.7l5.7,3.2l-5.9-2.8l-3-0.6l1.9,1l1.6,0.2l2.3,1.6l4.1,2.2l2.8,1l1.1,1.2l-1.5-0.6l-1.9-0.3
					l-2.2-1.5l-2.6-0.4l0.1,0.7l2.4,1l1,0l3.4,1.7l1-0.1l3.2,1.2l0.5,0.5l-0.8,0.1l0.2,0.6l4.2,3l4.1,1.1l1.7,0.9l-1.2,0.2l-0.4,0.3
					l-1.5-0.1l1.3,1.2l2.5,0.1l2.1,1.1l-0.1,0.7l-2.8-0.1l-6.3-2.9l-2.9-0.8l-0.8,0.4l-1.9-0.4l-0.8-0.3l0.3-0.7l0.6,0.4l0.9,0
					l0.2-0.4l1,0.1l1.1-0.8l1.1,0l-1.1-1.1l-0.3-0.6l-2.7-1.5l-3.8-1.4l-1.7-0.2l-3,0.2l-3-0.3l-0.6,0.5l-0.9-0.2l0.9,0.9l-2.2-0.5
					l-1.3,0.2l0.7,0.5l-0.3,0.6l-1.3-0.1l-2.9-2.1l-1,0.5l-0.7-0.4v0.8l-2.1-0.4l1.9,1l-1.4,0.2l-1.1,0.3l1.3,1.1l-1.2,0.4l2.7,1.8
					l1.5,0.8l0.2,1.3l-2.3-0.4l1.3,0.8l0.4,1.6l1.1,0.4l0.9-0.3l1.8,1.2l-0.5,0.5l-1.5-1l-0.6,0.5l2,1.8l2,0.2l1.1,0.6l0,0.5
					l-0.7,0.2l3,2.2l0,0.5l1.1,0.4l-0.2,0.6l2.8,1.7l-0.3,0.3l4,2.5l0.6,2l1.2,0.9l2.2,2.9l-0.2,0.6l-1.5,0.2l2,2.8l-0.4-0.2
					l0.3,0.9l0.2,0.7v1.4l2.2,2.1l-0.1,0.5l1.1,1.2l2.3,0.6l2.2,2.1l3.5,2.8l3,1.6l1.3,0.9l1.4-0.1l0.3,0.6l2,0.1l1.7-0.9l-0.5-2.2
					l-1.1-2.4l0-1l0.9,0.7l0.4-0.5l2.7,2.3l0.6-0.2l1,0.8l1.1,0.1l4.8,3.1l1.5-0.2l1.3,0.9l-0.1,0.6l0.9,0.7l-0.2,1.1l0.9,0.7
					l-0.8,0.9l2.2,1.4l1.7-0.3l-0.3-0.6l-1.7-0.8l-0.5-1.6l2.2,1.2l1-0.3l0.4-0.8l-2.1-1.3l0.2-1.8l1.1-0.1l-0.5-0.9l-3.1-2.8
					l-3.3-3.1l-1.8-0.9l-1.1-1.4l-0.4-1.6l-2.2-2.6l-1.4-0.7l-2.1-0.7l-2.7-0.4l-2.9-1.8l-3.4-2.6l-3.7-3.3l0.7-0.6l-0.6-0.1
					l-0.1-0.7l-1.1-0.5l0.1-1l-1.8-1.5l-5.2-2.8l0.1-0.8l-0.9-0.9l1.1-0.1v-0.9l1.6,0.2l2.5,1.2l-0.2,0.4l0.8,0.9l1.6,0.9l1.9,1.9
					l-0.2,0.5l2.2,1.5l-0.4,0.4l2.6,1.9l4.9,2.3l2.4,1.8l2.8,1.4l0.6-0.3l1,0.6l0.6-0.2l1.3,0.6l0.5-0.4l-0.3-0.7l0.4-0.1l-1.1-1.2
					l0.2-1l-0.8-0.9l0.5-1.1l-0.4-0.9l2.5,1.4v-1.2l1.5,0.9l-0.3,0.9l1.8,2.1l-0.2,0.7l-0.9-0.5l-0.7,0.5l0.6,1.1l-1.1,0.1l0.8,0.9
					l0.1,0.7l2,2.1l-0.1,0.7l0.7,0.9l0.5,0.3l0.5-0.7l-1.1-1.1l0.4-0.6l0.5,0.5l0.6-0.6l5.1,3.5l1.2,1.4l-1.5-0.2l-3.3-1.2l0.9,1.1
					h-0.7l0.6,0.7l1.7,1.1l0.5,0.8l5.8,4.1l1.4,0.3l1.5,1.4l-0.5,0.9h-0.9l0,0.5l1.4,1l0.2,1.1l1.1,1l-0.2,0.7l-3.2-2l-0.8,0.2
					l-0.1,1.4l-0.5,0.2l1.3,1.3l-0.6,0.5l0.1,0.8l-0.5,0.4l2.1,2.4l-1.4-0.8l-0.7,0.5l-1.5-1.1l-0.6,0.4l-2-2l0.1,1.1l-0.4,0.5
					l0.4,0.7l-0.4,0.7l0.5,0.4l-0.4,1.1l-1.7-1.1l-0.6,0.2l-0.7-0.6l-0.5,0.6l-1-0.7l-2.3-0.8l-1.4-1.5l0.8-0.3l2.6,1l-1.8-1.7
					l-2.6-0.3l-1-1.5l-0.5-0.5l0.8-0.5l-1-0.7l-1.3,0l-1.3-1l-1.9-2.1l-0.7-0.1l-0.5,0.3l0.5,0.4l-0.2,0.6l2.2,2.4l-2.1-0.7l0.4,1.3
					l1.7,1.2l2,2l2,1.2l0.6-0.4l1.9,1.5l1.9,1.1h0.9l0.8,0.8l0.5,1.2l0.9-0.1l1.7,1.3l-1.5,0.7l1.3,1.8l-0.4,0.4l-1.5-0.9l-1.7,0.1
					l1.1,0.3l1,0.7l-0.1,0.5l-1.5,0.5l-0.1,0.9l1.5,2l-0.1,0.9l-0.8,0.4l1.5,1.5l0,2.9l-1.6,1.7v0.8l-1.3,0.7l-0.3,1.1l1.5,1.9
					l-0.2,0.9l-0.5,0.1l0.2,1.6l-0.6,0.4l1,1.7l-0.6,0.6l-2.5-0.3l-0.2,0.7l-0.8-1l-1.3-0.3l-0.4,0.2l1,1.6l1.9,1l1.1,1.2l-0.6,0.7
					l-1.1-0.2l-0.5,0.2l0.1,0.6l-1.8-0.4l-1.4,0.5h-0.5l-1.1,1.3l0.4,0.9l1.3,0.5l0.7,1.5l2.2-0.1h3l2.3,1l3.3,2.7l1.7-0.3l1,1.7
					l1.2,0.8l0.9,2.2l2.1,2.1l2.4,5l-0.7,0.7l0.2,1l-2.7,0.5l-1.8,0.9l-1.4-0.1l-1.7,1l-1.8,0.1l-0.5-0.7l-2.4,0.9l-1.3,1.2l-1,0
					l-1.5-0.7l-1.6,0l-0.4,1.3l0.5,0.7l-1.8,0.4l0.5,1.6l1.4,2.6h1.3l0.9,1.4l-0.3,0.4l2.2,3.1l1.6,3.1l1.4,3l-0.1,2.7l-0.6,0
					l1.3,2.4l1.5,1.9l1.4,0l1.1,1.3l1.1,2.3l0.7,2.7l2.4-1.1l1.5,0.5l0.6-1.5l3.1-0.6l1.1,1.2l0.5,1.8l2.1,0.6l0,1.1l0.6,1.2
					l1.3,2.6l-0.2,2.9l0.4,1.1l-0.7,3.6l-3.4,3l0.3,1.3l-0.3,1.6l-0.7,1.1l1,2.5l-0.2,0.8l-0.6,0.3l0.5,1.8l-0.5,1.6l2.6,4.2
					l0.7,2.1l-0.6,3.7l-1.3,3.4l-1,0.8l-0.4,2.9l-1.4,0.6l0.4,1.5l-1.6,0.4l-0.4-0.5l-1.5,0.7l-1,1.6l0.5,2.2l0.1,2.8l-2.2,1.3
					l-0.7,4.7l0.7,4l-0.2,2.4l-1.7,3.5l-0.8,3.3l0,4.3l-1.2,4.8l0.7,2.4l4.1,5.1l0.5,5.4l1.8,0.3l1.7-0.4l1.2,2.6l-0.9,1l-0.8,2.5
					l0.4,2l-0.2,4l1.1,1.5l-0.7,1.7l-0.4,3.3l-1.6,3.4l-0.4,1.9l2,2.9l1.8-1.3l1,0.7l-1.6,4.8l1,0.8l-0.2,1.4l1.9,0.5v1.2l-1.7,1.3
					l3.6,2.3l4.1,3.9l1.9,0l2.1,3l4.4,2.9l3.5,9.4l1.4-0.2l2.7,1.6l2.7,3.2l1.1-0.4l1.8,1.4h0.7l2.7,3.1l1.9,0.4l0.9,1.6h0.9l0.9,1
					l1.9,0.2l0.7,1.2l2.7-0.1l2.8-2.8l2.1-0.3l1.5-2.3l1.1-0.1l1.2-2.1l2.3-1.2l1.6,0.3l1-0.9l1.8-0.9l1,0.6l2-0.6l0.4,1.6l1.8-0.7
					l0.7-1.2l0.5-1l1.5-1.3l2.2-1.9l0.8-2l2-1.3l0.3-1.3l1.8-0.7l1.5-1.6l0.4-1.4l1.5-0.3l1.3-1.2l1.3,0.1l3.1-1.3l1.3-0.5l0,0.7
					l1.3,0.7v0.6l0.8,0.1l-0.1,1.5l0.5,0.5l0,1.2l0.6,0.5l2,3.3l2.9-1.7l0.2-1.5l1.4,0.7l1.2-1.5l0.8,0.4l1.6-1.1l0.4,2.2l0.7,0.3
					l0.6-0.7l0.6,0.6l0,1.6l1.3,1.5l-0.4,2.6l0.4,5.6l-0.6,0.3l-0.4,3.7l0.7,0.6l0.5,4.3l-1.2,0.3l0.1,4.3l-0.9,0.7l-0.1,2.5l0.9,2
					l0,2l1.5,3.5l0.8,0.2l0.7,2.5l1.3,1l-0.2,1.8l1.3,1.9l1,6.8l0.4,7.9l0.8,2.8l-1.3,3.1l-0.1,7.2l-0.2,4l-3.7,9.3l-2.2,5l-1.9,7.8
					l-2.9,8.2l-1.4,3.1l-0.3,8.7l-1.9,10.6l-4.1,10.1l1.1-0.9l-3.9,8.5l-2.4,7.3l-3.2,7.6l-8.3,13l0.2,1.3l6.3-6.9
					c36.2-50.5,57.6-112.3,57.6-179.2C-1619.2-4391.5-1751.3-4527-1916.4-4532.6z M-1720.7-4446.7l0.9,1.9l1.4,0.3l3.8,5h-0.3
					l2.1,1.7l2,0.1l5.9,3.3l5.7,5.2v3.9l-1.8,0.4l-1.5-1.1l-0.9,1.4l1.2,2.7l1.6,3.4l-0.9,1.4l-1.5,0.6l-1.9-2l-2.9-1.3l-0.5-2.3
					l-1-0.4l-1.1-2.4l-6.9-7.1l-0.6-2.6l-3.2-3.6l0.3-0.6l-0.4-0.9l0.6,0l-0.2-1.3l1.6,2.5l1,0.1l-0.4-2.7l-2.1-2.5v-1.3l-1.1-0.9
					l-0.4-2.4L-1720.7-4446.7z M-1710.5-4360.5h-1.4l-0.7-0.4l-0.7-3l2.8,0.6l0.7,0.9l0.4,1.7L-1710.5-4360.5z M-1673.6-4358.5h-0.4
					l-1.7-3.1v-1l1.4,1.1l1,1.8L-1673.6-4358.5z M-1669.3-4375.4l-1.3,1.9l-1.1-0.1l-1.3-0.9l-0.7,1.6l-2.4-0.9l-0.8,0.7l-0.7-0.8
					l-0.5,0.4l-2.3-1.9l-1,0.8l0.1,1.2l-1,1.5l2.3,5.8l2.1,2.4l1.7,3.7l-0.9,1.4h-1.6l-1.9-2.1h-2.2l-1.6-0.9l-0.5,2.1l-2.7-1.6
					l-1.6-3l-1.5,0.4l-1.2-1l-2.7,0.9l-0.6,1l-3.5-0.2l-1.4-2.1l-1,0.9l-0.8-0.8l-0.9,0.2l-1.3-1.8l-0.3-1.7l0.7-1.6l-1-2.4
					l-1.2-0.5l-0.7-1.3l-1.9-0.9l-0.8-1.6l0.8-0.7l-1.2-2.2l-0.5,1l-1.4-0.3l-0.8-0.9l-1-0.4l-1,1.6l0.4,0.6l-0.9,2.3l-2.2-0.2
					l-2.1,1.1l-0.1,0.7l-3,1.8l-1.9-0.2l-1.7,2.1l-1.4,0.4l0.7,1.2l-2.4,0.4l-2.7,1.9l-0.8,2.6l-2.1,2.2l-0.4,2.9l-1.7,2l-1.8-0.5
					l-2.4,0.6l-2.5,1.2h-2l-2.7-1.3l-1-2.8l1.6-1.6v-1.5l1-0.3v-0.8l2,0.4l0.3-1.4h1.8l0.3,0.7l1.8-2l-0.6-2.9l1.5-2.1v-1l-0.6-2.6
					l-0.2-2.1l-2-1l-0.9-2.8l-1.1-1l1-2.9l-0.5-3l1.9-0.9l0.4-4.9l-3.9-3.8l0.8-2.7v-2l3.7,0.9l0.4,1l1.8,0.1l1.3-1.6l-0.7-2.9
					l0.7-0.8l-0.9-3.1l1.1-0.9h1.7l1.2,1.3l0.7-0.4l4.1,3.6l5,2.2l4.6,1.6l1-0.2l1.4,1.3l2.4-0.2l1.1,1.4l1.2,0.5l0.8-0.5l2.6,2.5
					l2.4,3.2l1,2.1l-0.8,0.7v1.2l-2,0.8l-0.8,1.2h-1.3l2.1,2.3l1.8-0.1l1.4,1.1l1.5-0.3l1.3,0.9l0.9-1.2l-1.2-1.8l-1.2-0.1l-1-2.5
					l1-3.1l-1.6-3.8l-1.9-2l-0.9-0.2l-1.6-1.9l-0.4-1.9l1.8,0.5l1.1,1.1l0.4-0.6l-2.7-3l-1.3,0.3l-0.9-0.9l-2.2-0.5l-0.5,0.5
					l-1.5-0.8l-1.3-2.2l-0.9,1.4l-1.6,0.2l-1.5-1.8h-1.4l-3.5-3.3l-1.2-0.4l-0.7,0.8l-0.8-1.1h-2.1l-2.2-2l-2.2-3.5l1-0.7l-0.2-1.2
					l1.1-0.4l0.4,1.4l2.7,1.7l0.6-1.2l3.5,3l1.1-0.2l0.6,1l3.2,1.1l2.7,2.3l0.8-1.3l2.9,0.4l3.2,1.9l2.2,2.1l-0.5,0.6l2.1,2.9l1-0.2
					l0.4,1l1.2-0.2l1.3,2.5l1.2-0.2l0.9,1.5l0.9-0.2l0.9,1.3l3.3,3.3l0.8-0.2l3.4,4.3l0.3-0.6l-1.1-1.1l0.2-0.4l1.8,1.7l1-0.3
					l-2.5-2.8l-0.4-1.1l0.4-0.6l-2.1-3.6l-0.1-1.3l-1.8-1.2l-1.5-0.9l-0.2,1.3l-0.9-0.6l-1.6-2.4l-1.8-0.9l-1.3-1.5l0.3-1.4l2.4,2.1
					l0.2-0.4l-3.1-3.6v-1.1l1.2,0.8l1.2-1.3l1.5,1l1.9,3.2l1.9,2.7l0.5-0.5l1.2,0.7l-0.4,0.9l1.9,1.9l1.3,2.5l0.6-0.4l-0.7-2
					l0.5-0.1l1.9,2.4l2.1,3.3l-0.7-2.4l1,0.8l0.4-1l0.9,0.6l-0.3,1.7l2,3.1l-1.1-4.1l1.1,0.9l-0.2-2.6l-1.6-0.8l0.4-2.1l2.4,1.9
					l0.8-1.6l-1-2l-1.2-1.5l0.9,0.4l0.7-0.5l6.7,9.4l5.8,8.8l2.2,4.7l0.9,1.9l-0.4,1.6l-1-0.6l-1.5-0.1L-1669.3-4375.4z
					 M-1665.4-4363l-0.2,0.8l-1.3-1.1l0.1-0.9l-2-4.3l0.3-2.3l0.5,0.3l1.1,2.2l-0.6,1.3l1.2,1.1l1.2,2.9L-1665.4-4363z
					 M-1647.3-4347.5l-6.9-10.7l-4.9-8.2v-0.8l0.9-0.3l5.7,8.6l6.1,10l4.1,8.2l3.1,7.9l5,14.1l-8.7-21.7L-1647.3-4347.5z"/>
			</g>
			<g>
				<path class="st1" d="M-2020.4-4195.9l-5.8,3.1l-2.8-5.1l5.7-6l-0.9-4.7l5.1-3.8l-13.3,4.4l-9.8,3.5l-7.9,11.7l-12-8.5l-9.8,5.1
					l-10.4-17.1l5.1-19.6l-24-7.9l3.2-13l9.5-14.5l-13.9-1.6l-12,16.4l-5.1-5.4l-4.1,3.8l-6.3-17.1l3.2-23.7l5.7-13.6l17.7-8.1
					l0.1,0c21.8-75.4,61.4-125.8,61.9-126.4l3.7,3l0.9-2.6l-3.8-0.9l8.5-8.2l12-4.4l-6-6.6l8.2,4.7l7-0.6l9.3-7.3l5.2,3.2l6.6-4.9
					l3.8-6.8h6.9l6.7,4.9l0.6,4.6l-4.4,2.1l-1.3,3.8l-2.5,0.6l1.6,4.7l11.7,7.9l-0.3-5.4l5.4,2.5l3.7-4.1l-5.8-4.1v-4.3l6.2,4
					l7.4-5.1l-11.6-6l-0.3-2.8l5.1-0.9l-6.9-5l-5.4-7.7h-4.7l1,2.7l-3.7-0.5l1.3-3.6l-7.7,1.3l-2.9,4.3l-0.4-2.6l6.7-4.4l-6.9,0.5
					l-7.6,6.2l0.4,3l2.9,1.8l-7.9,6.3l-2.9,0.8v-2.5l4.2-2.6l-1.2-2.1l-3.9,3.1l2.4-4.5l-2.1-0.2l4.2-3l1.4-3.7l3-1.9l1.5,0.4l6-3.1
					l-4.7-1.1l-10.4,6.7l-1.7-0.2l-3.6,3.4l0.6,2l-1.3,3.4l-4.5,1.3l-3.4,2.9l-0.9-1.7l6.3-4.1l0.2-3.5l-8.4,5.9l-5.7-1.1l-1.1-3.6
					l-4.7,0.4l-4.1,3.6l2.2-4.5l-5.9-2l2.9-1.1l1.3-2.8l-2.2-0.9l0.8-3.3l-3-2.3l5.8-3.6l-9.6,0.5l-9,3.8l8.6-7.7l3.3-3.8l7.2-6.1
					h-7.4l-13,6.5l3-3.9l-10.1,5.4l-5.2,2.7l-2.6-0.3l-18.5,10.8l-12.9,8l17.2-6.8l-8.1,5l6.8-2.3l-7.3,6.1l-7.1,11l-20.5,21.5
					l10.5-7.3l-12.6,13.3l-8.5,14.5l-7.6,10.7l-16.8,20l-10.4,15.5h3.5l-4.1,6.9v5.4l-3.4,5l2.9,5.4l-4.6,21.8v6.8l-3.7,19.5
					l4.6,12.3l2.3-41.7l3.2-2.8l1.9,4.1l-3.5,9.8l2.8,10.7l4.1,26.6l-3.5,9.5l10.7,20.5l10.7,11.1l12.3,2.8l9.5,14.2l16.8,6
					l8.6,13.3v6.2l6,3.4l11.3,13h13.4l7.2,7.4v13.1l-15.2,20.4l-2.1,21.8l9.9,21.2l1.3,2c0.9,0,2.2,0.1,3.9,0.2L-2020.4-4195.9z"/>
			</g>
			<g>
				<polygon class="st1" points="-1995.1,-4456.5 -1995.6,-4456.9 -1997,-4456.9 -1998.3,-4455.4 -1996.7,-4455.1 				"/>
			</g>
			<g>
				<path class="st1" d="M-2020.5-4352l6.4-3.4v-4.1l14.1-3.1l0.8-4.7l11.8-7.9l12.4-3.5l-6.9,9.2l10.4-4.1l16.8-6.3l-4.7-6l-7,6.6
					l-6.6-2.8l-1.3-7l3.5-3.2l-5.1-3.2l-11.7,2.5l6.6-4.4l9.8-3.5l3.2,3.8l10.7-1.5l9.2-5h3.8l-8.2,14.4l8.5,1.8l7.3,0.6l1.9,4.4
					l5.1-4.1l-3.8-9.8l-8.2-2.2l2.2-13.9l-7.9-6.6l-9.8-6.6l1.6-5.4l-7-10.1l-5.7,5.4l-4.7,2.5l-3.5-4.1l0.9-6.3l-7.9-6l-9.5-1.3
					l-3.8,9.5l-4.9,4.4l3,3.5l-1.3,5.7l-12,6.6l-0.9,9.8l-5.7,4.4l-3.8-6l3.5-11.1l-9.5-4.4l-2.8-5.1l-8.2-2.8l0.9-2.5
					c-4.5,6-22.2,30.5-39.1,67.4C-2069.2-4368.4-2045.3-4359.2-2020.5-4352z"/>
			</g>
			<g>
				<polygon class="st1" points="-1967.4,-4222.2 -1969.2,-4226.5 -1971,-4229.1 -1971,-4225.7 -1969.3,-4220.1 				"/>
			</g>
			<g>
				<path class="st1" d="M-2098.5-4315.8l4,1.4h18.9l4.2,4.8l4.7-1.7l4.1,5.6l-1.9,11.7l4.7,10.1l5.7-3.5l0.6-8.2l-3.5-17.4l7.3-9.2
					l23.4-12.6l-1.9-9.2l1.8-4.1c-23.6-7.1-45.5-15.5-53.5-18.7C-2086.6-4351.6-2093.1-4334.5-2098.5-4315.8z"/>
			</g>
			<g>
				<polygon class="st1" points="-2021.2,-4204.3 -2020.3,-4196.3 -2017,-4205.3 				"/>
			</g>
			<g>
				<path class="st1" d="M-1851-4082.3l16-15.7l2.8-9.5l-3.8-13.6l-7.3,0.6l-16.4-10.4l-10.1,2.2l-6-3.5l-4.7,1.6l-1.9,7.6l-4.1-2.5
					l4.1-5.7l-1.3-4.7l-16.4-4.4l-2.5,4.4l-2.5-0.9l0.9-2.8l-5.4-0.6l-2.8-4.1l-3.8,6.3l-5.4,3.8l-0.9,3.2l-6.3-0.3l-5.7,2.2
					l-8.2-0.6l-13.9,7l-11.7-1.3l12.6-1.3l12.6-7.6l9.2,1.6l11.7-5.1l6.6-8.2v-10.6l-3.1-12.3h-5.1l-10.4-6.9l-14.5,0.8l-8.2-6.4
					l-0.3-7l-10.7-2.2l-1.3-6.6l-10.7-5.1l-6.6,1.6l-6.3,1.6l-7-3.8l-6.6,0.3l-4-5.2l-38.9,103.7
					C-2018.3-4101.4-1925.8-4095.9-1851-4082.3z"/>
			</g>
			<g>
				<polygon class="st1" points="-1971.9,-4231.6 -1973.7,-4230.1 -1971.4,-4229.1 -1970.1,-4230.7 				"/>
			</g>
		</g>
	</g>
	<g>
		<g>
			<path d="M-2183.6-3665.4h99v18.5h-77.1v53.8h65.1v18.5h-65.1v62.4h79.8v18.5h-101.6V-3665.4z"/>
			<path d="M-2058.3-3567.6h60v16.5h-60V-3567.6z"/>
			<path d="M-1974.3-3579.4c0-55.4,33.3-89.2,78.8-89.2c23.8,0,39.5,10.8,49.5,21.2l-12,14.2c-8.7-9-19.7-16.2-37-16.2
				c-34.6,0-56.8,26.6-56.8,69.4c0,43.2,20.4,70.2,57.1,70.2c12.3,0,24.2-3.7,30.9-10.1v-44.7h-36.4v-18.1h56.3v72.2
				c-11,11.5-29.9,19.9-52.9,19.9C-1942-3490.5-1974.3-3523.6-1974.3-3579.4z"/>
			<path d="M-1802.8-3665.4h21.9v153.3h75v18.5h-96.8V-3665.4z"/>
			<path d="M-1685.6-3580.1c0-55,30.3-88.4,73.4-88.4c43.1,0,73.4,33.5,73.4,88.4c0,55-30.3,89.6-73.4,89.6
				C-1655.4-3490.5-1685.6-3525.1-1685.6-3580.1z M-1561.4-3580.1c0-42.8-20.2-69.2-50.8-69.2c-30.7,0-50.8,26.4-50.8,69.2
				s20.2,70.4,50.8,70.4C-1581.6-3509.7-1561.4-3537.4-1561.4-3580.1z"/>
			<path d="M-1501.9-3665.4h51c34.9,0,59.1,11.9,59.1,42.1c0,17-9,32.1-25.1,37.3v1c20.5,4,34.9,17.6,34.9,41.1
				c0,33.7-26.7,50.2-65,50.2h-54.9V-3665.4z M-1454.6-3592.3c29.2,0,41.3-10.8,41.3-28.2c0-20.1-13.8-27.6-40.3-27.6h-26.4v55.7
				H-1454.6z M-1450.2-3511c29.4,0,46.7-10.6,46.7-33.7c0-21.2-16.6-30.8-46.7-30.8h-29.9v64.6H-1450.2z"/>
			<path d="M-1312.7-3665.4h24.7l58.1,171.8h-23.1l-29.9-95.9c-6.2-19.2-11.7-38.1-17.2-57.9h-1c-5.3,19.9-10.8,38.7-17,57.9
				l-30.3,95.9h-22.2L-1312.7-3665.4z M-1340.3-3563.4h79.1v17.4h-79.1V-3563.4z"/>
			<path d="M-1205.7-3665.4h21.9v153.3h75v18.5h-96.8V-3665.4z"/>
			<path d="M-1038.6-3516l13.1-15c12.4,12.8,29.5,21.3,47.4,21.3c22.5,0,35.9-11.2,35.9-27.9c0-17.5-12.4-23.1-28.7-30.2l-24.7-10.9
				c-16-6.8-34.8-19-34.8-44.2c0-26.2,22.9-45.6,54.1-45.6c20.4,0,38.5,8.8,50.6,21.3l-11.6,14c-10.5-9.9-23.1-16.1-39-16.1
				c-19.3,0-32,9.7-32,25.1c0,16.5,15,22.7,28.4,28.4l24.5,10.6c19.9,8.5,35.4,20.4,35.4,45.9c0,27.1-22.4,48.8-58.5,48.8
				C-1002.7-3490.5-1023.6-3500.3-1038.6-3516z"/>
			<path d="M-896.4-3580.1c0-55,30.3-88.4,73.4-88.4c43.1,0,73.4,33.5,73.4,88.4c0,55-30.3,89.6-73.4,89.6
				C-866.1-3490.5-896.4-3525.1-896.4-3580.1z M-772.2-3580.1c0-42.8-20.2-69.2-50.8-69.2c-30.7,0-50.8,26.4-50.8,69.2
				s20.2,70.4,50.8,70.4C-792.3-3509.7-772.2-3537.4-772.2-3580.1z"/>
			<path d="M-712.7-3665.4h99v18.5h-77.2v57.9h65.5v18.5h-65.5v76.8h-21.9V-3665.4z"/>
			<path d="M-547.7-3646.9h-52v-18.5h125.8v18.5h-52v153.3h-21.9V-3646.9z"/>
			<path d="M-403.3-3516l13.1-15c12.4,12.8,29.5,21.3,47.4,21.3c22.5,0,35.9-11.2,35.9-27.9c0-17.5-12.4-23.1-28.7-30.2l-24.7-10.9
				c-16-6.8-34.8-19-34.8-44.2c0-26.2,22.9-45.6,54.1-45.6c20.4,0,38.5,8.8,50.6,21.3l-11.6,14c-10.5-9.9-23.1-16.1-39-16.1
				c-19.3,0-32,9.7-32,25.1c0,16.5,15,22.7,28.4,28.4l24.5,10.6c19.9,8.5,35.4,20.4,35.4,45.9c0,27.1-22.4,48.8-58.5,48.8
				C-367.3-3490.5-388.3-3500.3-403.3-3516z"/>
			<path d="M-261-3580.1c0-55,30.3-88.4,73.4-88.4c43.1,0,73.4,33.5,73.4,88.4c0,55-30.3,89.6-73.4,89.6
				C-230.8-3490.5-261-3525.1-261-3580.1z M-136.8-3580.1c0-42.8-20.2-69.2-50.8-69.2c-30.7,0-50.8,26.4-50.8,69.2
				s20.2,70.4,50.8,70.4C-157-3509.7-136.8-3537.4-136.8-3580.1z"/>
			<path d="M-77.3-3665.4h21.9v153.3h75v18.5h-96.8V-3665.4z"/>
			<path d="M49.1-3564.6v-100.8H71v101.4c0,41.3,17.4,54.2,39.9,54.2c22.8,0,40.7-13,40.7-54.2v-101.4h20.9v100.8
				c0,55.1-26.6,74.1-61.7,74.1S49.1-3509.5,49.1-3564.6z"/>
			<path d="M254.4-3646.9h-52v-18.5h125.8v18.5h-52v153.3h-21.9V-3646.9z"/>
			<path d="M358.9-3665.4h21.9v171.8h-21.9V-3665.4z"/>
			<path d="M417.8-3580.1c0-55,30.3-88.4,73.4-88.4c43.1,0,73.4,33.5,73.4,88.4c0,55-30.3,89.6-73.4,89.6
				C448-3490.5,417.8-3525.1,417.8-3580.1z M542-3580.1c0-42.8-20.2-69.2-50.8-69.2c-30.7,0-50.8,26.4-50.8,69.2
				s20.2,70.4,50.8,70.4C521.8-3509.7,542-3537.4,542-3580.1z"/>
			<path d="M601.5-3665.4h22.6l62.2,108l18.5,35.6h1c-1.1-17.3-2.8-36.7-2.8-54.6v-88.9h20.8v171.8h-22.6L639-3601.7l-18.5-35.5h-1
				c1.1,17.4,2.8,35.7,2.8,53.7v89.9h-20.8V-3665.4z"/>
			<path d="M758.3-3516l13.1-15c12.4,12.8,29.5,21.3,47.4,21.3c22.5,0,35.9-11.2,35.9-27.9c0-17.5-12.4-23.1-28.7-30.2l-24.7-10.9
				c-16-6.8-34.8-19-34.8-44.2c0-26.2,22.9-45.6,54.1-45.6c20.4,0,38.5,8.8,50.6,21.3l-11.6,14c-10.5-9.9-23.1-16.1-39-16.1
				c-19.3,0-32,9.7-32,25.1c0,16.5,15,22.7,28.4,28.4l24.5,10.6c19.9,8.5,35.4,20.4,35.4,45.9c0,27.1-22.4,48.8-58.5,48.8
				C794.3-3490.5,773.3-3500.3,758.3-3516z"/>
		</g>
	</g>
</g>
<g>
	<linearGradient id="SVGID_2_" gradientUnits="userSpaceOnUse" x1="2.8743" y1="10.7078" x2="183.3492" y2="39.2922">
		<stop  offset="0" style="stop-color:#223870"/>
		<stop  offset="0.4751" style="stop-color:#223E7B"/>
		<stop  offset="1" style="stop-color:#22468D"/>
	</linearGradient>
	<path class="st3" d="M168.9,48.3H17.3c-8.4,0-15.2-6.8-15.2-15.2V16.9c0-8.4,6.8-15.2,15.2-15.2h151.6c8.4,0,15.2,6.8,15.2,15.2
		v16.3C184.1,41.5,177.3,48.3,168.9,48.3z"/>
	<g>
		<g>
			<path class="st1" d="M113.9,28.1c-1.9-0.4-5.5,1-5.6-2.5c-0.1-3.6,3.7-2.4,5.9-2.7c5.7,0.5,4.3,0.3,4.3,6.8
				c0.2,9.2-1.6,10.8-11.6,10.2c-4-0.2-7.6-4.9-7.7-8.6c0-6.8,0.2-7.8,0.3-13c0.2-7.7,12-10.2,18-4.9c1.5,1.3,2,1.8,0.1,3.6
				c-1.7,1.7-4-0.3-5.8-1.3c-1-0.6-7.5-0.5-7.4,4.9c0,2.8-0.3,8-0.2,10.7c0.1,2.5,2,4.1,5.8,4.2C114.6,35.4,113.8,33.4,113.9,28.1z"
				/>
		</g>
		<g>
			<path class="st2" d="M164.9,10.6c2.5,0,4.8,0.7,7,1.7c1.4,0.7,2,1.9,1.3,3.3c-0.6,1.2-1.8,1.4-3.1,0.8c-1.7-0.7-3.5-1.2-5.5-1.2
				c-2.2,0-4.1,0.5-4.5,3c-0.5,2.8,1.6,3.7,3.7,4.3c1.7,0.4,3.4,0.5,5.1,1c3.8,1,6.1,3.2,6.2,7.3c0.1,4.3-1.9,7.5-5.8,8.6
				c-4.3,1.2-8.5,1-12.5-1.1c-1.6-0.8-3.4-1.6-2.2-3.9c1.1-2,2.7-1.2,4.1-0.4c2.3,1.2,4.7,2,7.3,1.6c2.1-0.4,3.8-1.4,4-3.8
				c0.1-2.4-1.6-3.3-3.5-3.8c-1.2-0.3-2.4-0.3-3.6-0.5c-5.8-1.1-8.8-4.4-8.2-9.1C155.4,13.6,159.3,10.6,164.9,10.6z"/>
		</g>
		<g>
			<path class="st2" d="M137.7,10.7c2.5,0,4.8,0.7,7,1.7c1.4,0.7,2,1.9,1.3,3.3c-0.6,1.2-1.8,1.4-3.1,0.8c-1.7-0.7-3.5-1.2-5.5-1.2
				c-2.2,0-4.1,0.5-4.5,3c-0.5,2.8,1.6,3.7,3.7,4.3c1.7,0.4,3.4,0.5,5.1,1c3.8,1,6.1,3.2,6.2,7.3c0.1,4.3-1.9,7.5-5.8,8.6
				c-4.3,1.2-8.5,1-12.5-1.1c-1.6-0.8-3.4-1.6-2.2-3.9c1.1-2,2.7-1.2,4.1-0.4c2.3,1.2,4.7,2,7.3,1.6c2.1-0.4,3.8-1.4,4-3.8
				c0.1-2.4-1.6-3.3-3.5-3.8c-1.2-0.3-2.4-0.3-3.6-0.5c-5.8-1.1-8.8-4.4-8.2-9.1C128.2,13.6,132.1,10.6,137.7,10.7z"/>
		</g>
		<g>
			<path class="st1" d="M66.2,14.7c-8-2.3-11.9,4-11.9,4s-3,4.2-1.4,11c1.6,6.8,6.3,7.3,9.5,7.5c3.2,0.2,5.8-0.5,7.8-1.4
				c0,0,0.7-0.3,0.7-1.3c0-0.9,0-2.6,0-2.6s-0.4-0.9-1.2-0.5c-0.8,0.4-2.7,1.5-5.4,1.5c-2.7,0-4.3-0.5-5.1-1.7s-1.1-2.5-1.2-3.3
				c-0.1-0.8,0.6-0.8,0.6-0.8l11.5,0.1c0,0,1.6-0.1,1.8-1.7c0,0,0-0.2,0-0.2S73.3,17.2,66.2,14.7z M66.7,22.7
				c-0.1,0.4,0,0.5-0.3,0.6c-0.3,0.1-7.7,0-7.7,0s-0.5,0-0.4-0.7c0.1-0.6,0.2-4,3.8-4.4c3.7-0.4,4.4,2.9,4.4,2.9
				S66.7,22.4,66.7,22.7z"/>
		</g>
		<g>
			<path class="st1" d="M88.5,28.8h-7.9c-1.1,0-1.9-0.9-1.9-1.9v-1.2c0-1.1,0.9-1.9,1.9-1.9h7.9c1.1,0,1.9,0.9,1.9,1.9v1.2
				C90.4,27.9,89.6,28.8,88.5,28.8z"/>
		</g>
		<g>
			<g>
				<polygon class="st1" points="37.5,17.4 37.5,17.5 37.6,17.6 37.6,17.6 37.6,17.6 37.5,17.5 				"/>
			</g>
			<g>
				<polygon class="st1" points="39.5,19.1 39.3,18.6 39.1,18.2 38.7,17.6 38.4,17.1 38.4,17.2 38.4,17.2 38.7,17.6 39,18.2 
					39.3,18.6 39.7,19.8 				"/>
			</g>
			<g>
				<polygon class="st1" points="37.9,17.2 38,17.1 37.9,17 37.9,17 37.9,17.1 38,17.3 38,17.4 38,17.4 38,17.4 38.1,17.4 38,17.2 
									"/>
			</g>
			<g>
				<polygon class="st1" points="35.6,17.4 35.4,17.3 35.4,17.5 35.5,17.5 35.5,17.5 35.6,17.5 35.6,17.4 				"/>
			</g>
			<g>
				<path class="st1" d="M35,12.9L35,12.9l0.1,0.2l0,0.1l-0.1,0L35,13.1l0,0.1l0,0l0,0.1l0,0l0.2,0.2l0,0.1l0.4,0.4l0.1,0.1l0.1,0
					l0,0.1l0.2,0.1l0.1,0.1l0.1,0l0.1-0.1L36,14.1L35.9,14l0.1-0.1l0.1,0.1l0.1,0v-0.2l-0.3-0.3l-0.3-0.2l-0.1,0l-0.1-0.1h0
					l-0.2-0.3L35,12.9l0-0.1l-0.1-0.1L35,12.9L35,12.9z M35.2,13.2L35.2,13.2L35.2,13.2L35.2,13.2l0.2,0l0,0.1l0.1,0.1l0,0.1
					l0.1,0.1l-0.2-0.2l0,0h0L35.2,13.2L35.2,13.2z"/>
			</g>
			<g>
				<path class="st1" d="M37.9,16.5L37.9,16.5l0-0.2l-0.1-0.3l-0.3-0.5L37,15.1l0,0l-0.1,0l0.1,0.1l0.1,0.1l0,0.1l-0.1-0.1l0,0.1
					l0.1,0l0,0.1l-0.1,0l0.1,0.2l-0.1-0.2l0-0.1l0,0l0,0.1l-0.1,0l0,0.1l-0.1-0.2l-0.1-0.1l0,0l0,0.1l0,0l-0.1-0.1l-0.1-0.1l0-0.1
					l-0.1,0l0,0L36.2,15l-0.1-0.2L36,14.7L36,14.8l-0.1,0v0.1l0.2,0.2l0,0l-0.1-0.1l0,0.1l0.1,0.1l0.1,0.1l0.1,0.1l0,0l0-0.1
					l0.1,0.1l0.1,0.1l0,0.1l0.1,0.2l0,0l0,0.1l0.1,0.2l-0.1,0l-0.1-0.1l0,0l0.1,0.1l0,0l-0.2-0.2l0,0l-0.2-0.2l-0.1-0.1l-0.1,0
					L36,15.3l-0.1,0l-0.1-0.1l-0.1,0l0-0.1l-0.1,0L35.6,15l0,0l-0.1-0.1l-0.2-0.1l-0.2,0l0,0.1l-0.2-0.1l-0.2-0.1l0-0.1l-0.1,0
					l-0.2-0.2l0,0.1l-0.2-0.1l0-0.1l-0.1,0l0,0.1l-0.1,0l0.1,0.2l0.1,0.1h0.1l0,0.1l0,0l0.1,0l0.2,0.2h0.1l0.1,0.1l0.1,0l0.1-0.1
					l0.1,0.1l0.1,0l0,0l0.1,0l0,0l0.1,0l0.1,0.2l0,0l-0.1-0.1l-0.1,0l0,0.1l0.1,0.1l0.1,0l0.1,0.1l0.1,0.2L35.9,16l0.1,0.1l0.1,0
					l0.1,0.1l0,0.1l-0.1,0l-0.1,0l-0.1-0.1l-0.1,0l-0.1-0.1h0.1l0-0.1l0.1,0v-0.1l0,0l-0.1-0.1l-0.1-0.2l-0.1-0.1l0,0l-0.1,0
					l-0.1-0.1l-0.1,0l-0.1-0.1l-0.1,0l-0.3-0.1l-0.3-0.1l-0.2-0.2l0,0l-0.1-0.1h-0.1l-0.1,0l0,0.2l0,0l0,0.2L34,15.4l-0.1,0l0-0.1
					l-0.2-0.1v0.1l0,0.1l0.2,0.2l0,0.3L33.7,16l0,0.2l-0.1,0.2l0.1,0.1l0,0.2l0.1,0.1l0,0.1l0,0.1V17l-0.1,0.1l0,0.2l-0.1,0.1l0,0
					h-0.1l0,0.1l-0.1,0v0l-0.1,0v0.1l-0.1,0.1l0.1,0.2l0.1,0.1h0.1l0.1-0.1l0.1,0l0.1,0l0.1-0.1l0-0.2l0.1-0.1l0-0.1l0.1-0.1l0.1,0
					l0-0.1l0.1,0l0.1-0.1l0.1,0l0.2-0.1l0,0l0.1-0.1l0.1,0l0-0.1l0,0l0.1-0.1l0.1,0l0,0l0.1,0l0-0.1l0.1,0.1l0,0l0,0.1l0.1,0.1
					l0,0.1l0.1,0l0.1,0.1l0,0.1l0,0.1l0.1,0.1l0.1,0l0,0l0.1-0.1l0.1,0.1l0.2,0l0-0.1l0.1,0l0.1,0.1l0.1,0l0.1,0.2l0.2,0.1l0-0.1
					l0.1,0.1h0.1l0.1,0.1h0.1l0-0.1l-0.1-0.2l-0.1-0.1l-0.1-0.3l0.1-0.1l0-0.1l0.1,0l0.1,0.1l0,0l0,0l0,0l0.1,0l0-0.1l0.1,0l0.1,0
					l0.1-0.1l-0.1-0.2L37.9,16.5L37.9,16.5z M34.3,16.2l0.1,0.2l0,0.1l-0.2-0.1v-0.1H34.3l0-0.1l0.1,0L34.3,16.2L34.3,16.2z
					 M35.1,16.1L35.1,16.1l-0.2,0l-0.1-0.2l-0.1-0.2v-0.1l-0.2-0.1l-0.1-0.2l0,0l0-0.1l0.3,0.4l0.1,0.1L35.1,16.1L35.1,16.1z
					 M37,16.1L37,16.1L37,16.1L37,16.1l-0.2-0.1v-0.1l0.1,0.1L37,16.1l-0.1-0.2L37,16.1L37,16.1z M37.3,15.7L37.3,15.7l-0.1-0.2
					v-0.1l0.1,0.2L37.3,15.7L37.3,15.7z"/>
			</g>
			<g>
				<polygon class="st1" points="20.9,9.9 20.9,10 21,9.9 				"/>
			</g>
			<g>
				<polygon class="st1" points="21,9.5 21.1,9.5 21.1,9.5 				"/>
			</g>
			<g>
				<polygon class="st1" points="19.8,10.3 19.7,10.3 19.7,10.2 19.6,10.3 19.6,10.4 19.4,10.4 19.4,10.3 19.3,10.4 19.4,10.5 
					19.2,10.7 19.4,10.6 19.5,10.6 19.6,10.5 19.6,10.5 19.7,10.4 19.7,10.4 19.8,10.3 				"/>
			</g>
			<g>
				<polygon class="st1" points="19.8,9.5 19.3,9.6 19.5,9.6 19.6,9.7 19.4,9.8 19.2,9.8 19.3,9.9 19.4,9.9 19.3,9.9 19.2,9.9 
					19.2,10 19.4,10 19.5,10 19.6,10 19.7,10 19.9,9.9 19.8,9.9 19.9,9.8 19.7,9.8 19.7,9.9 19.6,9.8 19.6,9.8 19.6,9.7 19.9,9.6 
									"/>
			</g>
			<g>
				<polygon class="st1" points="23.4,9.4 23.4,9.5 23.2,9.4 23.1,9.4 22.9,9.5 22.9,9.6 22.7,9.6 22.6,9.6 22.5,9.7 22.7,9.7 
					22.6,9.8 22.5,9.8 22.5,9.8 22.3,9.9 22.2,9.9 22.1,9.9 22.1,10 22.2,10 22.2,10 22.3,10 22.4,10 22.4,10 22.5,10.1 22.4,10.1 
					22.3,10.1 22.3,10.1 22.3,10.1 22.2,10.1 22.1,10.1 22,10.1 22.1,10.2 22.1,10.2 22.1,10.3 22.2,10.3 22.3,10.3 22.3,10.2 
					22.5,10.2 22.5,10.3 22.5,10.2 22.6,10.2 22.6,10.3 22.7,10.2 22.7,10.3 22.8,10.3 22.8,10.3 22.9,10.3 22.9,10.4 23,10.5 
					23,10.6 23,10.6 23,10.7 23.1,10.7 23.1,10.8 23.1,10.8 23,10.9 23,11 23.2,11 23.2,11 23.3,10.9 23.3,11 23.4,11 23.4,11.1 
					23.4,11.1 23.4,11.2 23.4,11.1 23.3,11.1 23.3,11.2 23.2,11.1 23.1,11.1 23.1,11.2 23.1,11.2 23.1,11.3 23.2,11.3 23.3,11.4 
					23.3,11.4 23.4,11.3 23.4,11.2 23.4,11.2 23.5,11.3 23.5,11.3 23.5,11.4 23.5,11.4 23.4,11.5 23.3,11.5 23.3,11.6 23.2,11.7 
					23.2,11.8 23.3,11.8 23.3,11.9 23.2,11.9 23.2,12 23.3,12.1 23.4,12.2 23.4,12.3 23.5,12.4 23.6,12.5 23.6,12.5 23.7,12.6 
					23.8,12.7 23.8,12.8 24,13 24.2,13 24.2,12.9 24.4,12.9 24.4,13 24.4,13 24.4,13.1 24.6,13.1 24.7,13.1 24.7,13.1 24.7,13 
					24.7,12.8 24.8,12.7 24.7,12.6 24.9,12.4 24.9,12.3 24.9,12.3 24.9,12.3 24.9,12.2 24.8,12.1 24.9,12.1 24.9,12 25,11.9 25,12 
					25,12 25,11.8 25.1,11.9 25.1,12 25.2,12 25.3,11.9 25.3,11.8 25.4,11.8 25.5,11.7 25.5,11.5 25.5,11.5 25.5,11.5 25.8,11.4 
					25.7,11.4 25.9,11.3 25.9,11.3 26,11.2 26.1,11.3 26.1,11.2 26.1,11.1 26.1,11.1 26.2,11.1 26.2,11 26.1,11 25.9,11 25.9,11 
					25.8,11 25.9,10.9 25.8,10.8 25.8,10.8 26,10.9 26.1,11 26.2,10.9 26.1,10.7 26,10.8 26,10.7 25.9,10.7 26,10.7 25.9,10.6 
					25.8,10.5 25.8,10.5 25.8,10.5 25.9,10.4 25.7,10.3 25.8,10.3 25.7,10.2 25.7,10.2 25.6,10.2 25.7,10.2 25.6,10.1 25.5,10 
					25.3,10 25.2,10 25.4,9.9 25.3,9.8 25.2,9.8 25.2,9.9 25.1,9.9 25.1,9.8 25,9.7 25.1,9.7 25,9.6 25,9.6 25,9.5 25,9.6 24.9,9.6 
					24.9,9.5 24.9,9.4 24.8,9.4 24.7,9.4 24.7,9.5 24.6,9.5 24.6,9.4 24.5,9.4 24.4,9.4 24.4,9.4 24.2,9.4 24.2,9.5 24.1,9.5 
					24.1,9.4 24.3,9.4 24.3,9.3 24.3,9.3 24,9.2 23.9,9.2 23.8,9.3 23.8,9.4 23.7,9.4 23.7,9.4 23.7,9.5 23.6,9.5 				"/>
			</g>
			<g>
				<polygon class="st1" points="20.6,9.6 20.6,9.6 20.4,9.7 20.5,9.7 20.6,9.7 20.5,9.7 20.5,9.8 20.6,9.8 20.7,9.7 20.6,9.7 
					20.7,9.7 20.7,9.6 20.6,9.6 				"/>
			</g>
			<g>
				<polygon class="st1" points="19.8,12.5 19.7,12.5 19.6,12.7 19.7,12.7 				"/>
			</g>
			<g>
				<polygon class="st1" points="19.8,10 19.7,10.1 19.8,10.1 19.8,10 				"/>
			</g>
			<g>
				<polygon class="st1" points="19.6,12.2 19.6,12.2 19.7,12.1 19.6,11.9 19.5,11.9 19.5,11.8 19.5,11.8 19.3,12 19.1,12.1 
					19.2,12.2 19.1,12.3 19.2,12.3 19.3,12.2 19.4,12.2 19.5,12.1 19.5,12.1 				"/>
			</g>
			<g>
				<polygon class="st1" points="19.2,12.5 19.3,12.5 19.5,12.4 19.5,12.4 19.3,12.4 				"/>
			</g>
			<g>
				<path class="st1" d="M23.6,37.8l0.6-0.6l0.2,0.1l0.1-0.3l0.3-0.1l0.1-0.3l-0.1-0.2l0.3-0.4l0.8-0.4l0.6-0.1l0.6-0.6l0.5-1.3
					l-0.1-0.6c-4.2-0.7-9.3-1-10.9-1.1l-0.1,0.2l0.7,1l1.6,1.1l0.3,1.8l-0.1,0.6l0.3,0.9l-0.2,0.8l0.4,1.7l0.6,0.6l1.6,0.3l-0.8-0.5
					l0.5-0.4L20.9,40l0-0.2l0.3-0.1v-0.3l0-0.3h0.5v-0.3l1.1-0.1l-0.1-0.5l-0.9-0.6l0.5,0.2l0.1-0.3l0,0.4l0.8,0.2l0.5-0.4H23.6z"/>
			</g>
			<g>
				<polygon class="st1" points="19.2,10.4 19.2,10.3 19.2,10.3 19.3,10.2 19.3,10.2 19.2,10.2 19.2,10.2 19.1,10.2 18.9,10.4 
					18.7,10.4 19,10.2 18.8,10.2 18.9,10 19,9.9 18.9,9.9 19,9.8 18.8,9.8 18.6,9.9 18.2,10 18,10.2 18.1,10.2 18.5,10.1 18.3,10.2 
					18.2,10.3 18.1,10.3 18,10.4 18.1,10.4 18.2,10.4 18.3,10.5 18.2,10.5 18,10.4 17.9,10.4 17.8,10.5 17.9,10.6 17.8,10.7 
					17.8,10.8 17.8,10.8 18,10.8 18,10.8 18.1,10.8 18.2,10.8 18.3,10.8 18.3,10.9 18.5,10.9 18.6,10.9 18.5,10.8 18.7,10.8 
					18.7,10.8 18.8,10.8 18.8,10.7 18.9,10.5 				"/>
			</g>
			<g>
				<polygon class="st1" points="20.7,9.9 20.8,9.9 20.8,9.8 20.8,9.8 20.9,9.7 20.9,9.7 20.8,9.7 20.7,9.7 20.8,9.8 20.7,9.8 				
					"/>
			</g>
			<g>
				<polygon class="st1" points="20.5,12.2 20.5,12.2 20.7,12 20.5,12.1 20.5,12 20.4,12 20.4,12 20.2,12.1 20.2,12.2 20.4,12.2 
					20.4,12.2 				"/>
			</g>
			<g>
				<polygon class="st1" points="20.9,11.6 20.8,11.5 20.7,11.5 20.6,11.6 20.6,11.6 20.8,11.6 				"/>
			</g>
			<g>
				<polygon class="st1" points="30.8,13.9 30.9,13.8 30.7,13.7 30.7,13.7 30.7,13.6 30.6,13.5 30.6,13.5 30.6,13.4 30.5,13.3 
					30.4,13.3 30.4,13.3 30.3,13.3 30.3,13.3 30.3,13.3 30.2,13.3 30.2,13.3 30.2,13.4 30.2,13.4 30.2,13.5 30.2,13.6 30.1,13.6 
					30.2,13.8 30.3,13.8 30.4,13.9 30.4,13.9 30.4,14 30.3,14 30.5,14.2 30.5,14.1 30.6,14.1 30.7,14.1 30.7,14 30.8,13.9 				"/>
			</g>
			<g>
				<polygon class="st1" points="19.9,10 20.1,9.9 20,9.9 20,9.9 19.9,9.9 				"/>
			</g>
			<g>
				<polygon class="st1" points="20,9.6 19.9,9.7 20.1,9.7 20.2,9.6 20.1,9.6 20.1,9.5 				"/>
			</g>
			<g>
				<polygon class="st1" points="21.1,10.4 21.2,10.4 21.3,10.3 21.2,10.2 21.1,10.2 20.7,10.2 20.7,10.1 20.8,10.1 20.8,10 
					20.7,10 20.6,9.9 20.5,9.9 20.4,10 20.5,10 20.5,10 20.6,10 20.6,10.1 20.4,10.2 20.4,10.3 20.5,10.3 20.6,10.3 20.5,10.4 
					20.7,10.4 20.9,10.4 20.9,10.3 20.9,10.4 				"/>
			</g>
			<g>
				<polygon class="st1" points="20.4,9.9 20.3,9.9 20.3,9.9 20.3,9.9 20.2,10 20.2,9.9 20.1,10 20.1,10 20,10.1 20,10.1 20.1,10.1 
									"/>
			</g>
			<g>
				<polygon class="st1" points="20.3,9.5 20.3,9.5 20.3,9.6 20.3,9.6 20.4,9.5 				"/>
			</g>
			<g>
				<polygon class="st1" points="20.2,10.3 20.3,10.2 20.4,10.1 20.3,10.1 20.3,10.1 20.2,10.1 20.2,10.2 20.2,10.2 				"/>
			</g>
			<g>
				<polygon class="st1" points="25.8,8.6 26.2,8.6 25.9,8.5 25.7,8.4 25.8,8.5 25.6,8.5 				"/>
			</g>
			<g>
				<polygon class="st1" points="21.4,25.3 21.3,25.3 21.3,25.5 21.4,25.4 				"/>
			</g>
			<g>
				<polygon class="st1" points="27.7,9.3 28,9.3 27.7,9.2 27.8,9.3 27.6,9.3 				"/>
			</g>
			<g>
				<polygon class="st1" points="27.2,11.6 27.1,11.6 27.1,11.6 27,11.6 27,11.7 27,11.7 27,11.7 26.9,11.6 26.8,11.6 26.8,11.6 
					26.7,11.6 26.7,11.6 26.7,11.7 26.8,11.8 26.8,11.9 26.9,11.9 27.1,11.9 27.1,12 27,12 27.1,12.1 27.2,12 27.3,12 27.4,12 
					27.4,12 27.6,12 27.7,12 27.6,12 27.7,11.9 27.7,11.9 27.7,11.9 27.8,11.8 27.8,11.9 27.9,11.8 27.8,11.7 27.8,11.7 27.9,11.7 
					27.9,11.7 27.8,11.6 27.7,11.6 27.6,11.5 27.4,11.5 27.4,11.5 27.4,11.5 27.3,11.5 27.2,11.6 27.2,11.6 27.2,11.6 				"/>
			</g>
			<g>
				<polygon class="st1" points="27.1,9.3 26.9,9.2 26.4,9.1 26.5,9.1 26.3,9 26.1,9 26.2,9 26,9 26.2,9.1 26.1,9.1 26.3,9.2 
					26,9.1 26.2,9.2 26.1,9.2 26.5,9.4 26.5,9.3 26.7,9.4 26.5,9.3 26.8,9.4 27,9.5 26.9,9.4 27.1,9.4 26.5,9.2 26.7,9.2 				"/>
			</g>
			<g>
				<polygon class="st1" points="25.8,8.7 26,8.7 26.3,8.7 26,8.6 				"/>
			</g>
			<g>
				<polygon class="st1" points="26.4,8.6 26.6,8.6 26.2,8.5 				"/>
			</g>
			<g>
				<polygon class="st1" points="21.4,10.1 21.5,10.2 21.6,10 21.6,10 21.7,9.9 21.8,10 21.9,9.9 22,9.8 22.2,9.7 22.3,9.8 
					22.4,9.7 22.4,9.7 22.5,9.6 22.6,9.6 22.7,9.5 22.9,9.5 22.9,9.4 22.9,9.4 22.9,9.3 22.8,9.4 22.7,9.3 22.7,9.3 22.6,9.4 
					22.6,9.3 22.5,9.3 22.4,9.3 22.3,9.3 22.2,9.3 22.1,9.4 22,9.3 21.9,9.4 21.7,9.4 21.6,9.5 21.7,9.6 21.6,9.6 21.6,9.6 
					21.6,9.7 21.6,9.8 21.5,9.7 21.6,9.6 21.5,9.6 21.5,9.5 21.6,9.4 21.3,9.4 21.1,9.6 21.2,9.7 21.1,9.7 21,9.7 21,9.8 21,9.8 
					21.2,9.9 21.1,9.9 21,10 20.8,10 20.9,10 20.9,10.1 21.1,10.1 21.1,10.2 21.2,10.1 21.2,10.1 21.3,10.1 21.3,10.2 				"/>
			</g>
			<g>
				<polygon class="st1" points="22.8,40.7 23.1,40.6 22.6,40.6 22.4,40.7 22.5,40.7 				"/>
			</g>
			<g>
				<polygon class="st1" points="37.2,15.4 37.2,15.5 37.3,15.7 37.3,15.7 37.3,15.6 37.3,15.5 				"/>
			</g>
			<g>
				<polygon class="st1" points="16.7,23.8 16.8,24 17.2,23.9 16.9,23.7 				"/>
			</g>
			<g>
				<polygon class="st1" points="36.9,16 36.9,16 36.8,15.9 36.8,16.1 36.9,16.2 36.9,16.1 37,16.1 37,16.1 37,16.1 36.9,15.9 				
					"/>
			</g>
			<g>
				<polygon class="st1" points="34.7,15.6 34.4,15.2 34.4,15.3 34.4,15.3 34.5,15.5 34.7,15.6 34.7,15.7 34.8,15.9 34.9,16.1 
					35,16.2 35.1,16.1 35.1,16 34.9,15.7 				"/>
			</g>
			<g>
				<path class="st1" d="M23.1,41.6l-0.1,0h-0.1l-0.2,0.1l-0.2,0l0.1,0.1l-0.3,0l0.1,0.1h-0.3l0.3,0.1l-0.1,0.1l-0.2-0.1l-0.2,0
					l0-0.1l-0.3,0l-0.1,0c0.6,0.1,1.2,0.1,1.8,0.1l-0.2,0v-0.1l-0.2-0.1l0.6-0.1L23.1,41.6z"/>
			</g>
			<g>
				<polygon class="st1" points="17.6,23.4 17.8,23.3 17.2,23 16.8,22.6 16.5,22.5 16.3,22.3 15.7,22.3 15.4,22.3 15.3,22.6 
					15.9,22.4 16.3,22.7 16.7,22.9 16.7,23 17,23.2 16.8,23.3 17,23.4 17.2,23.3 				"/>
			</g>
			<g>
				<polygon class="st1" points="19.7,24 19.6,24.1 19.8,24.1 19.8,24.2 20,24.1 20,24 19.9,24 				"/>
			</g>
			<g>
				<polygon class="st1" points="35.3,13.3 35.3,13.4 35.5,13.5 35.4,13.4 35.4,13.3 35.4,13.3 35.4,13.2 35.3,13.2 35.3,13.2 
					35.3,13.2 35.2,13.2 35.2,13.3 35.3,13.3 				"/>
			</g>
			<g>
				<polygon class="st1" points="29.1,12 29.1,11.9 29,11.9 29,11.9 29,12 29.1,12 				"/>
			</g>
			<g>
				<path class="st1" d="M18.3,18.4l0-0.1c0,0,0,0-0.1,0L18.3,18.4z"/>
			</g>
			<g>
				<polygon class="st1" points="34.3,16.1 34.2,16.2 34.1,16.2 34.1,16.3 34.3,16.4 34.3,16.4 34.3,16.2 34.4,16.2 34.3,16.1 				
					"/>
			</g>
			<g>
				<polygon class="st1" points="29.7,12.7 29.8,12.8 29.8,12.8 29.8,12.8 29.9,12.8 29.9,12.8 30.1,12.9 30.1,13 30.2,13.1 
					30.2,13 30.3,13.1 30.3,13.1 30.4,13.2 30.5,13.2 30.6,13.3 30.6,13.3 30.7,13.3 30.7,13.2 30.8,13.2 30.8,13.3 30.9,13.4 
					31,13.4 31.1,13.5 31.1,13.6 31,13.6 31,13.7 31,13.7 31.1,13.8 31.1,13.8 31.1,13.9 31.1,13.9 31.1,14 31.2,13.9 31.4,13.9 
					31.4,14 31.3,14 31.3,14.2 31.5,14.2 31.5,14.2 31.5,14.1 31.7,14.1 31.8,13.9 32,13.9 32,13.8 32,13.7 31.9,13.8 31.8,13.7 
					31.8,13.6 31.8,13.5 31.8,13.5 31.7,13.4 31.6,13.4 31.6,13.5 31.7,13.6 31.6,13.6 31.4,13.5 31.5,13.4 31.4,13.4 31.3,13.3 
					31.1,13.2 31.1,13.2 30.8,13 30.8,13 30.7,13 30.6,12.9 30.6,13 30.5,12.9 30.5,12.8 30.5,12.7 30.5,12.7 30.4,12.6 30.3,12.6 
					30.3,12.7 30.2,12.7 30.2,12.7 30.1,12.6 30.1,12.6 30.1,12.5 30.1,12.5 30,12.6 29.9,12.6 30,12.7 30,12.8 29.8,12.7 				"/>
			</g>
			<g>
				<polygon class="st1" points="26.6,40.9 26.8,40.8 26.7,40.7 26.6,40.8 				"/>
			</g>
			<g>
				<polygon class="st1" points="18,24 18.4,24.1 18.7,23.9 19.1,24 19.2,24 19.3,23.9 19.1,23.8 18.9,23.8 18.9,23.6 18.8,23.6 
					18.5,23.4 18.4,23.5 18.2,23.5 18,23.4 18.1,23.7 18.1,23.8 18.2,23.8 18.1,24 17.9,23.9 17.9,23.8 17.8,23.8 17.7,23.9 
					17.8,24 				"/>
			</g>
			<g>
				<path class="st1" d="M24.2,8L24.2,8l0.4,0.1l-0.1,0l0.2,0l-0.1,0.1l0.3,0l0-0.1l0.2,0l-0.2,0l-0.1,0l0.2,0l0.3,0l0.9,0.1l0.1,0
					l0.3,0.1l0.5,0.1l1,0.2l-0.6-0.1l1.1,0.3l0,0l0.2,0.1l0,0l0.1,0l-0.1,0l-0.3,0L28,8.8l-0.5-0.1l-0.6-0.2l-0.2,0l0.9,0.3L28,8.9
					L28.4,9l0.3,0.1l0,0l0.2,0L28.7,9L29,9l0.2,0.1l0,0l0.1,0.1l0.1,0.1l0.1,0l0.3,0.2l-0.3-0.2l-0.2,0l0.1,0.1l0.1,0l0.1,0.1
					l0.2,0.1l0.2,0.1L30,9.6l-0.1,0l-0.1,0l-0.1-0.1l-0.1,0l0,0l0.1,0.1l0.1,0l0.2,0.1l0.1,0l0.2,0.1l0,0l0,0l0,0l0.2,0.2l0.2,0.1
					l0.1,0.1l-0.1,0l0,0l-0.1,0l0.1,0.1l0.1,0l0.1,0.1l0,0l-0.2,0l-0.3-0.2l-0.2,0l0,0l-0.1,0l0,0l0,0l0,0l0,0l0,0l0.1,0l0.1,0
					l0.1,0l-0.1-0.1l0,0l-0.1-0.1l-0.2-0.1l-0.1,0l-0.2,0l-0.2,0l0,0l0,0l0.1,0l-0.1,0l-0.1,0l0,0l0,0l-0.1,0L29,9.6l-0.1,0l0,0v0
					l-0.1,0l0.1,0.1l-0.1,0l-0.1,0l0.1,0.1l-0.1,0l0.1,0.1l0.1,0l0,0.1l-0.1,0l0.1,0l0,0.1l0.1,0l0,0l0.1,0.1l0,0l-0.1-0.1l0,0
					l0.1,0.1l0.1,0l0.1,0l0,0l0,0l0.2,0.1l0,0l0.1,0l0,0l0.2,0.1l0,0l0.2,0.1l0,0.1l0.1,0l0.1,0.2l0,0l-0.1,0l0.1,0.2l0,0l0,0.1l0,0
					v0.1l0.1,0.1l0,0l0.1,0.1l0.1,0l0.1,0.1l0.2,0.2l0.2,0.1l0.1,0l0.1,0l0,0l0.1,0l0.1-0.1l0-0.1l-0.1-0.1l0-0.1l0.1,0l0,0l0.2,0.1
					l0,0l0.1,0l0.1,0l0.3,0.2l0.1,0l0.1,0l0,0l0,0l0,0.1l0,0l0,0l0.1,0.1l0.1,0l0,0l-0.1,0l0-0.1l0.1,0.1l0.1,0l0,0l-0.1-0.1l0-0.1
					l0.1,0l0,0L32,12l-0.2-0.2l-0.1,0l-0.1-0.1l0-0.1l-0.1-0.1l-0.1,0l-0.1,0l-0.1,0L31,11.3l-0.2-0.1l-0.2-0.2l0,0l0,0l0,0l-0.1,0
					l0-0.1l-0.1-0.1l-0.3-0.2l0,0l-0.1,0l0.1,0v-0.1l0.1,0l0.1,0.1l0,0l0,0.1l0.1,0l0.1,0.1l0,0l0.1,0.1l0,0l0.1,0.1l0.3,0.1
					l0.1,0.1l0.2,0.1l0,0l0.1,0l0,0l0.1,0l0,0l0,0l0,0l-0.1-0.1l0-0.1l0,0l0-0.1l0,0l0.1,0.1v-0.1l0.1,0.1l0,0.1l0.1,0.1l0,0l0,0
					l0,0l0,0.1l-0.1,0l0,0.1l0,0l0.1,0.1l0,0l0,0.1l0,0l0,0L32,11.5l0,0l0,0l0,0l0.3,0.2l0.1,0.1l-0.1,0l-0.2-0.1l0,0.1h0l0,0
					l0.1,0.1l0,0l0.3,0.2l0.1,0l0.1,0.1l0,0h0l0,0l0.1,0.1l0,0.1l0.1,0.1l0,0l-0.2-0.1l0,0l0,0.1l0,0l0.1,0.1l0,0l0,0l0,0l0.1,0.1
					l-0.1,0l0,0l-0.1-0.1l0,0l-0.1-0.1l0,0.1l0,0l0,0l0,0l0,0l0,0.1l-0.1-0.1l0,0l0,0l0,0l-0.1,0l-0.1,0l-0.1-0.1l0,0l0.1,0.1
					L32,12.5l-0.1,0l-0.1-0.1l0,0l0,0l-0.1,0l-0.1,0l-0.1-0.1l-0.1-0.1l0,0l0,0l0,0l0,0l0.1,0.1l-0.1,0l0,0.1l0.1,0.1l0.1,0.1
					l0.1,0.1l0,0l0.1,0.1l0.1,0.1h0.1l0,0l0,0.1l0,0l0.1,0.1l-0.1,0l0.1,0.1l0,0l-0.1,0l-0.1,0l0.1,0l0.1,0l0,0l-0.1,0l0,0.1
					l0.1,0.1l0,0l0,0l0.1,0.1l0,0.2l-0.1,0.1v0l-0.1,0l0,0.1l0.1,0.1l0,0.1l0,0l0,0.1l0,0l0.1,0.1l0,0l-0.1,0l0,0l0-0.1l-0.1,0l0,0
					l0.1,0.1l0.1,0.1l0.1,0.1l0,0l-0.1,0l0,0l0,0l-0.1,0l-0.1,0h0l-0.1,0.1l0,0l0.1,0l0,0.1l0.1,0h0.2l0.1,0.1l0.2,0.2l0.1,0
					l0.1,0.1l0.1,0l0,0.1l0.1,0.1l0.1,0.3l0,0l0,0.1l-0.1,0l-0.1,0.1l-0.1,0l-0.1,0.1l-0.1,0l0,0l-0.1,0.1l-0.1,0.1l-0.1,0l-0.1,0
					l-0.1,0l0,0.1l0,0l-0.1,0l0,0.1l0.1,0.1h0.1l0.1,0.1l0,0l0.1,0.2l0.1,0.2l0.1,0.2l0,0.1l0,0l0.1,0.1l0.1,0.1l0.1,0l0.1,0.1
					l0.1,0.1l0,0.2l0.1-0.1l0.1,0l0-0.1l0.2,0l0.1,0.1l0,0.1l0.1,0l0,0.1l0,0.1l0.1,0.1l0,0.2l0,0.1l0,0.2l-0.2,0.2l0,0.1l0,0.1
					l0,0.1l0.1,0.1l0,0l0,0l0,0.1l0,0.1l0.1,0.2l0,0.1l0,0.2l-0.1,0.2l-0.1,0l0,0.2l-0.1,0l0,0.1l-0.1,0l0,0l-0.1,0l-0.1,0.1l0,0.1
					l0,0.2l-0.1,0.1l0,0.3l0,0.2l0,0.1l-0.1,0.2l0,0.2l0,0.2l-0.1,0.3l0,0.1l0.2,0.3l0,0.3l0.1,0l0.1,0l0.1,0.1l0,0.1l0,0.1l0,0.1
					l0,0.2l0.1,0.1l0,0.1l0,0.2L33,24l0,0.1l0.1,0.2l0.1-0.1l0.1,0l-0.1,0.3l0.1,0l0,0.1l0.1,0v0.1l-0.1,0.1l0.2,0.1l0.2,0.2l0.1,0
					l0.1,0.2l0.2,0.2l0.2,0.5l0.1,0l0.2,0.1l0.1,0.2l0.1,0l0.1,0.1h0l0.1,0.2l0.1,0l0,0.1h0l0.1,0.1l0.1,0l0,0.1l0.1,0l0.2-0.2
					l0.1,0l0.1-0.1l0.1,0l0.1-0.1l0.1-0.1l0.1,0l0.1,0l0.1,0l0.1,0l0.1,0l0,0.1l0.1,0l0-0.1l0-0.1l0.1-0.1l0.1-0.1l0-0.1l0.1-0.1
					l0-0.1l0.1,0l0.1-0.1l0-0.1l0.1,0l0.1-0.1l0.1,0l0.2-0.1l0.1,0l0,0l0.1,0v0l0,0l0,0.1l0,0l0,0.1l0,0l0.1,0.2l0.2-0.1l0-0.1
					l0.1,0l0.1-0.1l0,0l0.1-0.1l0,0.1l0,0l0,0l0,0l0,0.1l0.1,0.1l0,0.1l0,0.3l0,0l0,0.2l0,0l0,0.2l-0.1,0l0,0.2l-0.1,0l0,0.1
					l0.1,0.1l0,0.1l0.1,0.2l0,0l0,0.1l0.1,0.1l0,0.1l0.1,0.1l0.1,0.4l0,0.4l0,0.2L39,29.2l0,0.4l0,0.2l-0.2,0.5l-0.1,0.3L38.6,31
					l-0.2,0.5l-0.1,0.2l0,0.5l-0.1,0.6L38,33.2l0.1,0l-0.2,0.5l-0.1,0.4l-0.2,0.4L37,35.2l0,0.1l0.3-0.4c2-2.8,3.2-6.2,3.2-9.9
					C40.6,15.8,33.3,8.3,24.2,8z M35,12.8l0,0.1l0.1,0l0.2,0.3h0l0.1,0.1l0.1,0l0.3,0.2l0.3,0.3v0.2l-0.1,0L36,13.9L35.9,14l0.1,0.2
					l0.1,0.2L36,14.4l-0.1,0l-0.1-0.1l-0.2-0.1l0-0.1l-0.1,0L35.5,14l-0.4-0.4l0-0.1L35,13.2l0,0l0-0.1l0,0l0-0.1l0.1,0.1l0.1,0
					l0-0.1L35,12.9v-0.1L35,12.8L35,12.8L35,12.8z M35.5,17.5L35.5,17.5l-0.1,0l0-0.2l0.2,0l0,0L35.5,17.5L35.5,17.5z M37.6,17.6
					L37.6,17.6l-0.1-0.2v-0.1l0.1,0.1L37.6,17.6L37.6,17.6z M37.8,16.7l-0.1,0.1l-0.1,0l-0.1,0l0,0.1l-0.1,0l0,0l0,0l0,0l-0.1-0.1
					l-0.1,0l0,0.1l-0.1,0.1l0.1,0.3l0.1,0.1l0.1,0.2l0,0.1h-0.1l-0.1-0.1h-0.1L37,17.5l0,0.1l-0.2-0.1l-0.1-0.2l-0.1,0l-0.1-0.1
					l-0.1,0l0,0.1l-0.2,0l-0.1-0.1l-0.1,0.1l0,0l-0.1,0l-0.1-0.1l0-0.1l0-0.1l-0.1-0.1l-0.1,0l0-0.1l-0.1-0.1l0-0.1l0,0l-0.1-0.1
					l0,0.1l-0.1,0l0,0l-0.1,0l-0.1,0.1l0,0l0,0.1l-0.1,0l-0.1,0.1l0,0l-0.2,0.1l-0.1,0L34.7,17l-0.1,0l0,0.1l-0.1,0l-0.1,0.1l0,0.1
					l-0.1,0.1l0,0.2l-0.1,0.1l-0.1,0l-0.1,0l-0.1,0.1h-0.1l-0.1-0.1l-0.1-0.2l0.1-0.1v-0.1l0.1,0v0l0.1,0l0-0.1h0.1l0,0l0.1-0.1
					l0-0.2L34,17v-0.1l0-0.1l0-0.1l-0.1-0.1l0-0.2l-0.1-0.1l0.1-0.2l0-0.2l0.1-0.1l0-0.3l-0.2-0.2l0-0.1v-0.1l0.2,0.1l0,0.1l0.1,0
					l0.1-0.1l0-0.2l0,0l0-0.2l0.1,0h0.1l0.1,0.1l0,0l0.2,0.2l0.3,0.1l0.3,0.1l0.1,0l0.1,0.1l0.1,0l0.1,0.1l0.1,0l0,0l0.1,0.1
					l0.1,0.2l0.1,0.1l0,0V16l-0.1,0l0,0.1h-0.1l0.1,0.1l0.1,0l0.1,0.1l0.1,0l0.1,0l0-0.1L36,16.2l-0.1,0L35.9,16l0.1-0.2l-0.1-0.2
					l-0.1-0.1l-0.1,0l-0.1-0.1l0-0.1l0.1,0l0.1,0.1l0,0l-0.1-0.2l-0.1,0l0,0l-0.1,0l0,0l-0.1,0L35.2,15l-0.1,0.1l-0.1,0L34.9,15
					h-0.1l-0.2-0.2l-0.1,0l0,0l0-0.1h-0.1l-0.1-0.1l-0.1-0.2l0.1,0l0-0.1l0.1,0l0,0.1l0.2,0.1l0-0.1l0.2,0.2l0.1,0l0,0.1l0.2,0.1
					l0.2,0.1l0-0.1l0.2,0l0.2,0.1l0.1,0.1l0,0l0.1,0.2l0.1,0l0,0.1l0.1,0l0.1,0.1l0.1,0l0.1,0.1l0.1,0l0.1,0.1l0.2,0.2l0,0l0.2,0.2
					l0,0l-0.1-0.1l0,0l0.1,0.1l0.1,0l-0.1-0.2l0-0.1l0,0l-0.1-0.2l0-0.1l-0.1-0.1l-0.1-0.1l0,0.1l0,0l-0.1-0.1L36,15.1L35.9,15
					l0-0.1L36,15l0,0l-0.2-0.2v-0.1l0.1,0l0.1-0.1l0.1,0.1l0.1,0.2l0.1,0.1l0,0l0.1,0l0,0.1l0.1,0.1l0.1,0.1l0,0l0-0.1l0,0l0.1,0.1
					l0.1,0.2l0-0.1l0.1,0l0-0.1l0,0l0,0.1l0.1,0.2l-0.1-0.2l0.1,0l0-0.1l-0.1,0l0-0.1l0.1,0.1l0-0.1L37,15.2L37,15.1l0.1,0l0,0
					l0.4,0.5l0.3,0.5l0.1,0.3l0,0.1l0,0.1l-0.1,0l-0.1,0L37.8,16.7z M38,17.4L38,17.4L38,17.4L38,17.4l-0.2-0.3l0-0.1l0,0l0.1,0.1
					l0,0.1l0.1,0.1L38,17.4L38,17.4z M39,18.2l-0.4-0.6l-0.3-0.5v0l0,0l0.3,0.5L39,18.2l0.3,0.4l0.2,0.4l0.3,0.8l-0.5-1.2L39,18.2z"
					/>
			</g>
			<g>
				<path class="st1" d="M18.4,26.6l-0.3,0.2L18,26.5l0.3-0.3l-0.1-0.3l0.3-0.2l-0.7,0.2l-0.5,0.2l-0.4,0.6l-0.7-0.5l-0.5,0.3
					L15,25.6l0.3-1.1L14,24.1l0.2-0.7l0.5-0.8l-0.8-0.1l-0.7,0.9L13,23.1l-0.2,0.2l-0.3-0.9l0.2-1.3l0.3-0.8l1-0.4l0,0
					c1.2-4.2,3.4-6.9,3.4-7l0.2,0.2l0.1-0.1l-0.2-0.1l0.5-0.5l0.7-0.2l-0.3-0.4l0.5,0.3l0.4,0l0.5-0.4l0.3,0.2l0.4-0.3l0.2-0.4h0.4
					l0.4,0.3l0,0.3l-0.2,0.1L20.8,12l-0.1,0l0.1,0.3l0.6,0.4l0-0.3l0.3,0.1l0.2-0.2l-0.3-0.2v-0.2l0.3,0.2l0.4-0.3l-0.6-0.3l0-0.2
					l0.3-0.1L21.6,11l-0.3-0.4H21l0.1,0.1l-0.2,0l0.1-0.2l-0.4,0.1l-0.2,0.2l0-0.1l0.4-0.2l-0.4,0l-0.4,0.3l0,0.2l0.2,0.1l-0.4,0.3
					l-0.2,0v-0.1l0.2-0.1l-0.1-0.1l-0.2,0.2l0.1-0.2l-0.1,0l0.2-0.2l0.1-0.2l0.2-0.1l0.1,0l0.3-0.2l-0.3-0.1l-0.6,0.4l-0.1,0
					l-0.2,0.2l0,0.1l-0.1,0.2l-0.2,0.1l-0.2,0.2l-0.1-0.1l0.3-0.2l0-0.2l-0.5,0.3l-0.3-0.1l-0.1-0.2l-0.3,0l-0.2,0.2l0.1-0.2
					l-0.3-0.1l0.2-0.1l0.1-0.2l-0.1-0.1l0-0.2l-0.2-0.1l0.3-0.2l-0.5,0l-0.5,0.2l0.5-0.4l0.2-0.2l0.4-0.3h-0.4l-0.7,0.4l0.2-0.2
					l-0.6,0.3L16,9.9l-0.1,0l-1,0.6l-0.7,0.4l0.9-0.4l-0.4,0.3l0.4-0.1L14.6,11l-0.4,0.6l-1.1,1.2l0.6-0.4L13,13.1L12.5,14l-0.4,0.6
					l-0.9,1.1l-0.6,0.9h0.2l-0.2,0.4v0.3l-0.2,0.3l0.2,0.3L10.3,19v0.4l-0.2,1.1l0.3,0.7l0.1-2.3l0.2-0.2l0.1,0.2l-0.2,0.5l0.2,0.6
					l0.2,1.5L10.8,22l0.6,1.1l0.6,0.6l0.7,0.2l0.5,0.8l0.9,0.3l0.5,0.7v0.3l0.3,0.2l0.6,0.7h0.7l0.4,0.4v0.7l-0.8,1.1l-0.1,1.2
					l0.5,1.2l0.1,0.1c0,0,0.1,0,0.2,0L18.4,26.6z"/>
			</g>
			<g>
				<polygon class="st1" points="19.8,12.2 19.8,12.2 19.7,12.2 19.7,12.3 19.8,12.3 				"/>
			</g>
			<g>
				<path class="st1" d="M18.4,18l0.4-0.2v-0.2l0.8-0.2l0-0.3l0.6-0.4l0.7-0.2L20.6,17l0.6-0.2l0.9-0.3l-0.3-0.3l-0.4,0.4L21,16.3
					L21,15.9l0.2-0.2l-0.3-0.2l-0.6,0.1l0.4-0.2l0.5-0.2l0.2,0.2l0.6-0.1l0.5-0.3h0.2l-0.5,0.8l0.5,0.1l0.4,0l0.1,0.2l0.3-0.2
					l-0.2-0.5l-0.5-0.1l0.1-0.8l-0.4-0.4l-0.5-0.4l0.1-0.3l-0.4-0.6l-0.3,0.3L21,13.5l-0.2-0.2l0.1-0.3l-0.4-0.3l-0.5-0.1L19.7,13
					l-0.3,0.2l0.2,0.2l-0.1,0.3l-0.7,0.4l-0.1,0.5l-0.3,0.2l-0.2-0.3l0.2-0.6L18,13.8l-0.2-0.3l-0.5-0.2l0.1-0.1
					c-0.2,0.3-1.2,1.7-2.2,3.7C15.7,17.1,17.1,17.6,18.4,18z"/>
			</g>
			<g>
				<polygon class="st1" points="21.4,25.2 21.3,24.9 21.2,24.8 21.2,25 21.3,25.3 				"/>
			</g>
			<g>
				<path class="st1" d="M14.1,20l0.2,0.1h1l0.2,0.3l0.3-0.1l0.2,0.3L16,21.2l0.3,0.6l0.3-0.2l0-0.5l-0.2-1l0.4-0.5l1.3-0.7L18,18.4
					l0.1-0.2c-1.3-0.4-2.5-0.9-3-1C14.8,18,14.4,19,14.1,20z"/>
			</g>
			<g>
				<polygon class="st1" points="18.4,26.1 18.4,26.6 18.6,26.1 				"/>
			</g>
			<g>
				<path class="st1" d="M27.8,32.9l0.9-0.9l0.2-0.5l-0.2-0.8l-0.4,0l-0.9-0.6l-0.6,0.1l-0.3-0.2l-0.3,0.1l-0.1,0.4l-0.2-0.1
					l0.2-0.3L26,29.9l-0.9-0.2l-0.1,0.2l-0.1-0.1l0.1-0.2l-0.3,0l-0.2-0.2l-0.2,0.3L23.9,30l-0.1,0.2l-0.3,0l-0.3,0.1l-0.5,0
					L22,30.6l-0.6-0.1l0.7-0.1l0.7-0.4l0.5,0.1l0.6-0.3l0.4-0.5v-0.6l-0.2-0.7h-0.3l-0.6-0.4l-0.8,0l-0.5-0.4l0-0.4L21.3,27
					l-0.1-0.4l-0.6-0.3l-0.4,0.1l-0.3,0.1l-0.4-0.2l-0.4,0L19,26l-2.1,5.7C18.6,31.8,23.7,32.1,27.8,32.9z"/>
			</g>
			<g>
				<polygon class="st1" points="21.1,24.6 21,24.7 21.1,24.8 21.2,24.7 				"/>
			</g>
		</g>
	</g>
</g>
</svg>
